Griffith_Gothic-Thin_Italic.ufo
<glyph name="quotedbl" format="1">
  <advance width="300"/>
  <unicode hex="0022"/>
  <outline>
    <contour>
      <point x="336" y="720" type="line"/>
      <point x="276" y="525" type="line"/>
      <point x="250" y="525" type="line"/>
      <point x="288" y="720" type="line"/>
    </contour>
    <contour>
      <point x="206" y="720" type="line"/>
      <point x="146" y="525" type="line"/>
      <point x="120" y="525" type="line"/>
      <point x="158" y="720" type="line"/>
    </contour>
  </outline>
</glyph>
<glyph name="numbersign" format="1">
  <advance width="600"/>
  <unicode hex="0023"/>
  <outline>
    <contour>
      <point x="628" y="503" type="line"/>
      <point x="620" y="469" type="line"/>
      <point x="501" y="469" type="line"/>
      <point x="426" y="251" type="line"/>
      <point x="550" y="251" type="line"/>
      <point x="542" y="217" type="line"/>
      <point x="414" y="217" type="line"/>
      <point x="340" y="0" type="line"/>
      <point x="300" y="0" type="line"/>
      <point x="374" y="217" type="line"/>
      <point x="188" y="217" type="line"/>
      <point x="113" y="0" type="line"/>
      <point x="73" y="0" type="line"/>
      <point x="148" y="217" type="line"/>
      <point x="32" y="217" type="line"/>
      <point x="40" y="251" type="line"/>
      <point x="159" y="251" type="line"/>
      <point x="234" y="469" type="line"/>
      <point x="110" y="469" type="line"/>
      <point x="118" y="503" type="line"/>
      <point x="246" y="503" type="line"/>
      <point x="320" y="720" type="line"/>
      <point x="360" y="720" type="line"/>
      <point x="286" y="503" type="line"/>
      <point x="472" y="503" type="line"/>
      <point x="547" y="720" type="line"/>
      <point x="587" y="720" type="line"/>
      <point x="512" y="503" type="line"/>
    </contour>
    <contour>
      <point x="461" y="469" type="line"/>
      <point x="274" y="469" type="line"/>
      <point x="199" y="251" type="line"/>
      <point x="386" y="251" type="line"/>
    </contour>
  </outline>
</glyph>
<glyph name="dollar" format="1">
  <advance width="535"/>
  <unicode hex="0024"/>
  <outline>
    <contour>
      <point x="553" y="616" type="curve"/>
      <point x="522" y="590" type="line"/>
      <point x="489" y="638"/>
      <point x="448" y="670"/>
      <point x="393" y="683" type="curve"/>
      <point x="320" y="388" type="line"/>
      <point x="429" y="327"/>
      <point x="471" y="271"/>
      <point x="471" y="194" type="curve" smooth="yes"/>
      <point x="471" y="74"/>
      <point x="365" y="-2"/>
      <point x="241" y="-2" type="curve" smooth="yes"/>
      <point x="235" y="-2"/>
      <point x="229" y="-2"/>
      <point x="223" y="-1" type="curve"/>
      <point x="200" y="-95" type="line"/>
      <point x="164" y="-95" type="line"/>
      <point x="188" y="3" type="line"/>
      <point x="114" y="16"/>
      <point x="51" y="56"/>
      <point x="12" y="114" type="curve"/>
      <point x="43" y="140" type="line"/>
      <point x="81" y="84"/>
      <point x="130" y="47"/>
      <point x="197" y="36" type="curve"/>
      <point x="279" y="368" type="line"/>
      <point x="191" y="416"/>
      <point x="139" y="464"/>
      <point x="139" y="544" type="curve" smooth="yes"/>
      <point x="139" y="653"/>
      <point x="231" y="722"/>
      <point x="345" y="722" type="curve" smooth="yes"/>
      <point x="352" y="722"/>
      <point x="360" y="722"/>
      <point x="367" y="721" type="curve"/>
      <point x="377" y="762" type="line"/>
      <point x="413" y="762" type="line"/>
      <point x="402" y="717" type="line"/>
      <point x="466" y="704"/>
      <point x="516" y="669"/>
    </contour>
    <contour>
      <point x="358" y="687" type="line"/>
      <point x="353" y="688"/>
      <point x="347" y="688"/>
      <point x="341" y="688" type="curve" smooth="yes"/>
      <point x="243" y="688"/>
      <point x="181" y="632"/>
      <point x="181" y="549" type="curve" smooth="yes"/>
      <point x="181" y="488"/>
      <point x="210" y="452"/>
      <point x="289" y="406" type="curve"/>
    </contour>
    <contour>
      <point x="429" y="191" type="curve" smooth="yes"/>
      <point x="429" y="252"/>
      <point x="400" y="298"/>
      <point x="311" y="350" type="curve"/>
      <point x="232" y="32" type="line"/>
      <point x="236" y="32"/>
      <point x="241" y="32"/>
      <point x="245" y="32" type="curve" smooth="yes"/>
      <point x="367" y="32"/>
      <point x="429" y="103"/>
    </contour>
  </outline>
</glyph>
<glyph name="percent" format="1">
  <advance width="800"/>
  <unicode hex="0025"/>
  <outline>
    <contour>
      <point x="410" y="583" type="curve" smooth="yes"/>
      <point x="410" y="473"/>
      <point x="336" y="353"/>
      <point x="226" y="353" type="curve" smooth="yes"/>
      <point x="160" y="353"/>
      <point x="96" y="400"/>
      <point x="96" y="497" type="curve" smooth="yes"/>
      <point x="96" y="607"/>
      <point x="170" y="727"/>
      <point x="280" y="727" type="curve" smooth="yes"/>
      <point x="346" y="727"/>
      <point x="410" y="680"/>
    </contour>
    <contour>
      <point x="756" y="720" type="line"/>
      <point x="440" y="353" type="line"/>
      <point x="138" y="0" type="line"/>
      <point x="96" y="0" type="line"/>
      <point x="412" y="367" type="line"/>
      <point x="714" y="720" type="line"/>
    </contour>
    <contour>
      <point x="756" y="223" type="curve" smooth="yes"/>
      <point x="756" y="113"/>
      <point x="682" y="-7"/>
      <point x="572" y="-7" type="curve" smooth="yes"/>
      <point x="506" y="-7"/>
      <point x="442" y="40"/>
      <point x="442" y="137" type="curve" smooth="yes"/>
      <point x="442" y="247"/>
      <point x="516" y="367"/>
      <point x="626" y="367" type="curve" smooth="yes"/>
      <point x="692" y="367"/>
      <point x="756" y="320"/>
    </contour>
    <contour>
      <point x="370" y="583" type="curve" smooth="yes"/>
      <point x="370" y="651"/>
      <point x="336" y="695"/>
      <point x="280" y="695" type="curve" smooth="yes"/>
      <point x="191" y="695"/>
      <point x="136" y="587"/>
      <point x="136" y="497" type="curve" smooth="yes"/>
      <point x="136" y="429"/>
      <point x="170" y="385"/>
      <point x="226" y="385" type="curve" smooth="yes"/>
      <point x="315" y="385"/>
      <point x="370" y="493"/>
    </contour>
    <contour>
      <point x="716" y="223" type="curve" smooth="yes"/>
      <point x="716" y="291"/>
      <point x="682" y="335"/>
      <point x="626" y="335" type="curve" smooth="yes"/>
      <point x="537" y="335"/>
      <point x="482" y="227"/>
      <point x="482" y="137" type="curve" smooth="yes"/>
      <point x="482" y="69"/>
      <point x="516" y="25"/>
      <point x="572" y="25" type="curve" smooth="yes"/>
      <point x="661" y="25"/>
      <point x="716" y="133"/>
    </contour>
  </outline>
</glyph>
<glyph name="ampersand" format="1">
  <advance width="660"/>
  <unicode hex="0026"/>
  <outline>
    <contour>
      <point x="635" y="356" type="line"/>
      <point x="575" y="261"/>
      <point x="510" y="174"/>
      <point x="441" y="109" type="curve"/>
      <point x="485" y="38"/>
      <point x="518" y="30"/>
      <point x="565" y="30" type="curve" smooth="yes"/>
      <point x="578" y="30"/>
      <point x="589" y="31"/>
      <point x="605" y="34" type="curve"/>
      <point x="595" y="-2" type="line"/>
      <point x="580" y="-5"/>
      <point x="571" y="-6"/>
      <point x="555" y="-6" type="curve" smooth="yes"/>
      <point x="491" y="-6"/>
      <point x="452" y="11"/>
      <point x="410" y="81" type="curve"/>
      <point x="343" y="24"/>
      <point x="273" y="-10"/>
      <point x="205" y="-10" type="curve" smooth="yes"/>
      <point x="104" y="-10"/>
      <point x="30" y="51"/>
      <point x="30" y="161" type="curve" smooth="yes"/>
      <point x="30" y="272"/>
      <point x="103" y="369"/>
      <point x="261" y="430" type="curve"/>
      <point x="246" y="474"/>
      <point x="239" y="507"/>
      <point x="239" y="552" type="curve" smooth="yes"/>
      <point x="239" y="651"/>
      <point x="310" y="732"/>
      <point x="405" y="732" type="curve" smooth="yes"/>
      <point x="478" y="732"/>
      <point x="518" y="685"/>
      <point x="518" y="620" type="curve" smooth="yes"/>
      <point x="518" y="526"/>
      <point x="441" y="461"/>
      <point x="309" y="413" type="curve"/>
      <point x="356" y="285"/>
      <point x="389" y="206"/>
      <point x="424" y="141" type="curve"/>
      <point x="487" y="203"/>
      <point x="547" y="287"/>
      <point x="602" y="378" type="curve"/>
    </contour>
    <contour>
      <point x="477" y="616" type="curve" smooth="yes"/>
      <point x="477" y="666"/>
      <point x="450" y="698"/>
      <point x="402" y="698" type="curve" smooth="yes"/>
      <point x="329" y="698"/>
      <point x="283" y="632"/>
      <point x="283" y="553" type="curve" smooth="yes"/>
      <point x="283" y="513"/>
      <point x="288" y="479"/>
      <point x="299" y="443" type="curve"/>
      <point x="421" y="488"/>
      <point x="477" y="538"/>
    </contour>
    <contour>
      <point x="393" y="112" type="curve"/>
      <point x="356" y="182"/>
      <point x="320" y="268"/>
      <point x="272" y="399" type="curve"/>
      <point x="136" y="347"/>
      <point x="74" y="260"/>
      <point x="74" y="163" type="curve" smooth="yes"/>
      <point x="74" y="79"/>
      <point x="128" y="26"/>
      <point x="210" y="26" type="curve" smooth="yes"/>
      <point x="271" y="26"/>
      <point x="333" y="58"/>
    </contour>
  </outline>
</glyph>
<glyph name="asterisk" format="1">
  <advance width="440"/>
  <unicode hex="002A"/>
  <outline>
    <contour>
      <point x="462" y="580" type="line"/>
      <point x="303" y="542" type="line"/>
      <point x="412" y="418" type="line"/>
      <point x="375" y="391" type="line"/>
      <point x="287" y="534" type="line"/>
      <point x="199" y="391" type="line"/>
      <point x="162" y="418" type="line"/>
      <point x="271" y="542" type="line"/>
      <point x="112" y="580" type="line"/>
      <point x="126" y="623" type="line"/>
      <point x="278" y="557" type="line"/>
      <point x="264" y="720" type="line"/>
      <point x="310" y="720" type="line"/>
      <point x="296" y="557" type="line"/>
      <point x="448" y="623" type="line"/>
    </contour>
  </outline>
</glyph>
<glyph name="comma" format="1">
  <advance width="170"/>
  <unicode hex="002C"/>
  <outline>
    <contour>
      <point x="79" y="75" type="line"/>
      <point x="-27" y="-120" type="line"/>
      <point x="-58" y="-120" type="line"/>
      <point x="25" y="75" type="line"/>
    </contour>
  </outline>
</glyph>
<glyph name="period" format="1">
  <advance width="170"/>
  <unicode hex="002E"/>
  <outline>
    <contour>
      <point x="68" y="31" type="curve" smooth="yes"/>
      <point x="68" y="9"/>
      <point x="52" y="-7"/>
      <point x="30" y="-7" type="curve" smooth="yes"/>
      <point x="8" y="-7"/>
      <point x="-8" y="9"/>
      <point x="-8" y="31" type="curve" smooth="yes"/>
      <point x="-8" y="53"/>
      <point x="8" y="69"/>
      <point x="30" y="69" type="curve" smooth="yes"/>
      <point x="52" y="69"/>
      <point x="68" y="53"/>
    </contour>
  </outline>
</glyph>
<glyph name="slash" format="1">
  <advance width="360"/>
  <unicode hex="002F"/>
  <outline>
    <contour>
      <point x="461" y="735" type="line"/>
      <point x="-53" y="-95" type="line"/>
      <point x="-98" y="-95" type="line"/>
      <point x="416" y="735" type="line"/>
    </contour>
  </outline>
</glyph>
<glyph name="zero" format="1">
  <advance width="584"/>
  <unicode hex="0030"/>
  <outline>
    <contour>
      <point x="570" y="498" type="line" smooth="yes"/>
      <point x="570" y="442"/>
      <point x="563" y="388"/>
      <point x="551" y="337" type="curve" smooth="yes"/>
      <point x="505" y="139"/>
      <point x="379" y="-12"/>
      <point x="244" y="-12" type="curve" smooth="yes"/>
      <point x="129" y="-12"/>
      <point x="66" y="80"/>
      <point x="66" y="220" type="curve" smooth="yes"/>
      <point x="66" y="222" type="line" smooth="yes"/>
      <point x="66" y="278"/>
      <point x="73" y="332"/>
      <point x="85" y="383" type="curve" smooth="yes"/>
      <point x="131" y="581"/>
      <point x="257" y="732"/>
      <point x="392" y="732" type="curve" smooth="yes"/>
      <point x="507" y="732"/>
      <point x="570" y="640"/>
      <point x="570" y="500" type="curve" smooth="yes"/>
    </contour>
    <contour>
      <point x="526" y="497" type="curve" smooth="yes"/>
      <point x="526" y="499" type="line" smooth="yes"/>
      <point x="526" y="614"/>
      <point x="483" y="696"/>
      <point x="390" y="696" type="curve" smooth="yes"/>
      <point x="277" y="696"/>
      <point x="179" y="562"/>
      <point x="133" y="396" type="curve" smooth="yes"/>
      <point x="120" y="349"/>
      <point x="110" y="281"/>
      <point x="110" y="223" type="curve" smooth="yes"/>
      <point x="110" y="221" type="line" smooth="yes"/>
      <point x="110" y="106"/>
      <point x="153" y="24"/>
      <point x="246" y="24" type="curve" smooth="yes"/>
      <point x="359" y="24"/>
      <point x="457" y="158"/>
      <point x="503" y="324" type="curve" smooth="yes"/>
      <point x="516" y="371"/>
      <point x="526" y="439"/>
    </contour>
  </outline>
</glyph>
<glyph name="one" format="1">
  <advance width="436"/>
  <unicode hex="0031"/>
  <outline>
    <contour>
      <point x="372" y="720" type="line"/>
      <point x="201" y="36" type="line"/>
      <point x="355" y="36" type="line"/>
      <point x="346" y="0" type="line"/>
      <point x="-9" y="0" type="line"/>
      <point x="0" y="36" type="line"/>
      <point x="159" y="36" type="line"/>
      <point x="321" y="684" type="line"/>
      <point x="150" y="684" type="line"/>
      <point x="159" y="720" type="line"/>
    </contour>
  </outline>
</glyph>
<glyph name="five" format="1">
  <advance width="526"/>
  <unicode hex="0035"/>
  <outline>
    <contour>
      <point x="541" y="720" type="line"/>
      <point x="534" y="684" type="line"/>
      <point x="250" y="684" type="line"/>
      <point x="153" y="386" type="line"/>
      <point x="162" y="386" type="line"/>
      <point x="210" y="431"/>
      <point x="252" y="454"/>
      <point x="311" y="454" type="curve" smooth="yes"/>
      <point x="414" y="454"/>
      <point x="482" y="390"/>
      <point x="482" y="276" type="curve" smooth="yes"/>
      <point x="482" y="274" type="line" smooth="yes"/>
      <point x="482" y="113"/>
      <point x="351" y="-10"/>
      <point x="186" y="-10" type="curve" smooth="yes"/>
      <point x="101" y="-10"/>
      <point x="44" y="11"/>
      <point x="-8" y="42" type="curve"/>
      <point x="12" y="77" type="line"/>
      <point x="65" y="43"/>
      <point x="123" y="25"/>
      <point x="191" y="25" type="curve" smooth="yes"/>
      <point x="333" y="25"/>
      <point x="438" y="131"/>
      <point x="438" y="272" type="curve" smooth="yes"/>
      <point x="438" y="274" type="line" smooth="yes"/>
      <point x="438" y="369"/>
      <point x="386" y="420"/>
      <point x="306" y="420" type="curve" smooth="yes"/>
      <point x="242" y="420"/>
      <point x="208" y="394"/>
      <point x="162" y="353" type="curve"/>
      <point x="102" y="353" type="line"/>
      <point x="221" y="720" type="line"/>
    </contour>
  </outline>
</glyph>
<glyph name="seven" format="1">
  <advance width="476"/>
  <unicode hex="0037"/>
  <outline>
    <contour>
      <point x="565" y="720" type="line"/>
      <point x="558" y="689" type="line"/>
      <point x="359" y="490"/>
      <point x="193" y="221"/>
      <point x="108" y="0" type="curve"/>
      <point x="64" y="0" type="line"/>
      <point x="137" y="193"/>
      <point x="307" y="480"/>
      <point x="509" y="684" type="curve"/>
      <point x="121" y="684" type="line"/>
      <point x="129" y="720" type="line"/>
    </contour>
  </outline>
</glyph>
<glyph name="eight" format="1">
  <advance width="576"/>
  <unicode hex="0038"/>
  <outline>
    <contour>
      <point x="567" y="563" type="curve" smooth="yes"/>
      <point x="567" y="464"/>
      <point x="480" y="402"/>
      <point x="404" y="380" type="curve"/>
      <point x="402" y="374" type="line"/>
      <point x="468" y="343"/>
      <point x="516" y="290"/>
      <point x="516" y="206" type="curve" smooth="yes"/>
      <point x="516" y="88"/>
      <point x="406" y="-11"/>
      <point x="262" y="-11" type="curve" smooth="yes"/>
      <point x="126" y="-11"/>
      <point x="45" y="69"/>
      <point x="45" y="176" type="curve" smooth="yes"/>
      <point x="45" y="292"/>
      <point x="139" y="365"/>
      <point x="237" y="391" type="curve"/>
      <point x="239" y="398" type="line"/>
      <point x="180" y="431"/>
      <point x="147" y="474"/>
      <point x="147" y="543" type="curve" smooth="yes"/>
      <point x="147" y="647"/>
      <point x="240" y="732"/>
      <point x="371" y="732" type="curve" smooth="yes"/>
      <point x="495" y="732"/>
      <point x="567" y="665"/>
    </contour>
    <contour>
      <point x="523" y="566" type="curve" smooth="yes"/>
      <point x="523" y="642"/>
      <point x="468" y="696"/>
      <point x="367" y="696" type="curve" smooth="yes"/>
      <point x="261" y="696"/>
      <point x="191" y="631"/>
      <point x="191" y="543" type="curve" smooth="yes"/>
      <point x="191" y="457"/>
      <point x="253" y="397"/>
      <point x="340" y="397" type="curve" smooth="yes"/>
      <point x="449" y="397"/>
      <point x="523" y="477"/>
    </contour>
    <contour>
      <point x="472" y="210" type="curve" smooth="yes"/>
      <point x="472" y="301"/>
      <point x="405" y="371"/>
      <point x="299" y="371" type="curve" smooth="yes"/>
      <point x="185" y="371"/>
      <point x="89" y="286"/>
      <point x="89" y="182" type="curve" smooth="yes"/>
      <point x="89" y="90"/>
      <point x="149" y="25"/>
      <point x="264" y="25" type="curve" smooth="yes"/>
      <point x="384" y="25"/>
      <point x="472" y="104"/>
    </contour>
  </outline>
</glyph>
<glyph name="nine" format="1">
  <advance width="541"/>
  <unicode hex="0039"/>
  <outline>
    <contour>
      <point x="544" y="536" type="curve" smooth="yes"/>
      <point x="544" y="319"/>
      <point x="363" y="116"/>
      <point x="176" y="0" type="curve"/>
      <point x="107" y="0" type="line"/>
      <point x="291" y="105"/>
      <point x="422" y="251"/>
      <point x="470" y="371" type="curve"/>
      <point x="463" y="371" type="line"/>
      <point x="400" y="308"/>
      <point x="344" y="278"/>
      <point x="269" y="278" type="curve" smooth="yes"/>
      <point x="160" y="278"/>
      <point x="85" y="342"/>
      <point x="85" y="466" type="curve" smooth="yes"/>
      <point x="85" y="610"/>
      <point x="211" y="732"/>
      <point x="354" y="732" type="curve" smooth="yes"/>
      <point x="466" y="732"/>
      <point x="544" y="656"/>
    </contour>
    <contour>
      <point x="502" y="541" type="curve" smooth="yes"/>
      <point x="502" y="635"/>
      <point x="442" y="696"/>
      <point x="348" y="696" type="curve" smooth="yes"/>
      <point x="230" y="696"/>
      <point x="129" y="593"/>
      <point x="129" y="468" type="curve" smooth="yes"/>
      <point x="129" y="370"/>
      <point x="181" y="314"/>
      <point x="278" y="314" type="curve" smooth="yes"/>
      <point x="394" y="314"/>
      <point x="502" y="408"/>
    </contour>
  </outline>
</glyph>
<glyph name="semicolon" format="1">
  <advance width="190"/>
  <unicode hex="003B"/>
  <outline>
    <contour>
      <point x="188" y="478" type="curve" smooth="yes"/>
      <point x="188" y="456"/>
      <point x="172" y="440"/>
      <point x="150" y="440" type="curve" smooth="yes"/>
      <point x="128" y="440"/>
      <point x="112" y="456"/>
      <point x="112" y="478" type="curve" smooth="yes"/>
      <point x="112" y="500"/>
      <point x="128" y="516"/>
      <point x="150" y="516" type="curve" smooth="yes"/>
      <point x="172" y="516"/>
      <point x="188" y="500"/>
    </contour>
    <contour>
      <point x="79" y="75" type="line"/>
      <point x="-27" y="-120" type="line"/>
      <point x="-58" y="-120" type="line"/>
      <point x="25" y="75" type="line"/>
    </contour>
  </outline>
</glyph>
<glyph name="less" format="1">
  <advance width="600"/>
  <unicode hex="003C"/>
  <outline>
    <contour>
      <point x="565" y="109" type="line"/>
      <point x="76" y="335" type="line"/>
      <point x="76" y="375" type="line"/>
      <point x="565" y="601" type="line"/>
      <point x="565" y="559" type="line"/>
      <point x="119" y="355" type="line"/>
      <point x="565" y="151" type="line"/>
    </contour>
  </outline>
</glyph>
<glyph name="question" format="1">
  <advance width="425"/>
  <unicode hex="003F"/>
  <outline>
    <contour>
      <point x="461" y="606" type="curve" smooth="yes"/>
      <point x="461" y="521"/>
      <point x="410" y="471"/>
      <point x="316" y="401" type="curve" smooth="yes"/>
      <point x="241" y="345"/>
      <point x="218" y="310"/>
      <point x="191" y="198" type="curve"/>
      <point x="163" y="198" type="line"/>
      <point x="189" y="331"/>
      <point x="216" y="369"/>
      <point x="300" y="430" type="curve" smooth="yes"/>
      <point x="368" y="479"/>
      <point x="417" y="532"/>
      <point x="417" y="604" type="curve" smooth="yes"/>
      <point x="417" y="667"/>
      <point x="370" y="696"/>
      <point x="309" y="696" type="curve" smooth="yes"/>
      <point x="244" y="696"/>
      <point x="198" y="664"/>
      <point x="150" y="596" type="curve"/>
      <point x="120" y="616" type="line"/>
      <point x="172" y="691"/>
      <point x="237" y="732"/>
      <point x="314" y="732" type="curve" smooth="yes"/>
      <point x="406" y="732"/>
      <point x="461" y="682"/>
    </contour>
    <contour>
      <point x="181" y="31" type="curve" smooth="yes"/>
      <point x="181" y="9"/>
      <point x="165" y="-7"/>
      <point x="143" y="-7" type="curve" smooth="yes"/>
      <point x="121" y="-7"/>
      <point x="105" y="9"/>
      <point x="105" y="31" type="curve" smooth="yes"/>
      <point x="105" y="53"/>
      <point x="121" y="69"/>
      <point x="143" y="69" type="curve" smooth="yes"/>
      <point x="165" y="69"/>
      <point x="181" y="53"/>
    </contour>
  </outline>
</glyph>
<glyph name="at" format="1">
  <advance width="990"/>
  <unicode hex="0040"/>
  <outline>
    <contour>
      <point x="948" y="333" type="curve" smooth="yes"/>
      <point x="948" y="159"/>
      <point x="836" y="33"/>
      <point x="724" y="33" type="curve" smooth="yes"/>
      <point x="648" y="33"/>
      <point x="610" y="81"/>
      <point x="608" y="157" type="curve"/>
      <point x="603" y="157" type="line"/>
      <point x="555" y="78"/>
      <point x="498" y="33"/>
      <point x="438" y="33" type="curve" smooth="yes"/>
      <point x="359" y="33"/>
      <point x="305" y="98"/>
      <point x="305" y="205" type="curve" smooth="yes"/>
      <point x="305" y="371"/>
      <point x="392" y="512"/>
      <point x="504" y="512" type="curve" smooth="yes"/>
      <point x="576" y="512"/>
      <point x="614" y="458"/>
      <point x="635" y="388" type="curve"/>
      <point x="640" y="387" type="line"/>
      <point x="661" y="510" type="line"/>
      <point x="697" y="491" type="line"/>
      <point x="645" y="197" type="line" smooth="yes"/>
      <point x="632" y="124"/>
      <point x="655" y="60"/>
      <point x="728" y="60" type="curve" smooth="yes"/>
      <point x="819" y="60"/>
      <point x="913" y="174"/>
      <point x="913" y="331" type="curve" smooth="yes"/>
      <point x="913" y="559"/>
      <point x="751" y="702"/>
      <point x="521" y="702" type="curve" smooth="yes"/>
      <point x="282" y="702"/>
      <point x="96" y="509"/>
      <point x="96" y="266" type="curve" smooth="yes"/>
      <point x="96" y="10"/>
      <point x="262" y="-162"/>
      <point x="512" y="-162" type="curve" smooth="yes"/>
      <point x="634" y="-162"/>
      <point x="720" y="-138"/>
      <point x="810" y="-89" type="curve"/>
      <point x="825" y="-114" type="line"/>
      <point x="732" y="-164"/>
      <point x="640" y="-192"/>
      <point x="510" y="-192" type="curve" smooth="yes"/>
      <point x="240" y="-192"/>
      <point x="60" y="-10"/>
      <point x="60" y="265" type="curve" smooth="yes"/>
      <point x="60" y="529"/>
      <point x="270" y="732"/>
      <point x="524" y="732" type="curve" smooth="yes"/>
      <point x="763" y="732"/>
      <point x="948" y="574"/>
    </contour>
    <contour>
      <point x="626" y="312" type="curve" smooth="yes"/>
      <point x="626" y="393"/>
      <point x="580" y="479"/>
      <point x="507" y="479" type="curve" smooth="yes"/>
      <point x="414" y="479"/>
      <point x="344" y="364"/>
      <point x="344" y="210" type="curve" smooth="yes"/>
      <point x="344" y="122"/>
      <point x="381" y="64"/>
      <point x="446" y="64" type="curve" smooth="yes"/>
      <point x="536" y="64"/>
      <point x="626" y="196"/>
    </contour>
  </outline>
</glyph>
<glyph name="C" format="1">
  <advance width="566"/>
  <unicode hex="0043"/>
  <outline>
    <contour>
      <point x="579" y="517" type="curve"/>
      <point x="539" y="507" type="line"/>
      <point x="538" y="627"/>
      <point x="496" y="696"/>
      <point x="399" y="696" type="curve" smooth="yes"/>
      <point x="271" y="696"/>
      <point x="173" y="548"/>
      <point x="132" y="393" type="curve" smooth="yes"/>
      <point x="117" y="338"/>
      <point x="109" y="285"/>
      <point x="109" y="233" type="curve" smooth="yes"/>
      <point x="109" y="231" type="line" smooth="yes"/>
      <point x="109" y="117"/>
      <point x="153" y="24"/>
      <point x="259" y="24" type="curve" smooth="yes"/>
      <point x="350" y="24"/>
      <point x="415" y="91"/>
      <point x="467" y="198" type="curve"/>
      <point x="504" y="182" type="line"/>
      <point x="444" y="59"/>
      <point x="362" y="-12"/>
      <point x="256" y="-12" type="curve" smooth="yes"/>
      <point x="132" y="-12"/>
      <point x="65" y="83"/>
      <point x="65" y="230" type="curve" smooth="yes"/>
      <point x="65" y="232" type="line" smooth="yes"/>
      <point x="65" y="278"/>
      <point x="70" y="316"/>
      <point x="82" y="371" type="curve" smooth="yes"/>
      <point x="123" y="555"/>
      <point x="241" y="732"/>
      <point x="402" y="732" type="curve" smooth="yes"/>
      <point x="521" y="732"/>
      <point x="580" y="652"/>
    </contour>
  </outline>
</glyph>
<glyph name="J" format="1">
  <advance width="467"/>
  <unicode hex="004A"/>
  <outline>
    <contour>
      <point x="495" y="720" type="line"/>
      <point x="366" y="201" type="line" smooth="yes"/>
      <point x="331" y="61"/>
      <point x="258" y="-12"/>
      <point x="150" y="-12" type="curve" smooth="yes"/>
      <point x="59" y="-12"/>
      <point x="3" y="38"/>
      <point x="3" y="115" type="curve" smooth="yes"/>
      <point x="3" y="133"/>
      <point x="5" y="152"/>
      <point x="10" y="174" type="curve"/>
      <point x="54" y="192" type="line"/>
      <point x="48" y="167"/>
      <point x="45" y="146"/>
      <point x="45" y="125" type="curve" smooth="yes"/>
      <point x="45" y="58"/>
      <point x="80" y="24"/>
      <point x="153" y="24" type="curve" smooth="yes"/>
      <point x="234" y="24"/>
      <point x="292" y="83"/>
      <point x="324" y="211" type="curve" smooth="yes"/>
      <point x="451" y="720" type="line"/>
    </contour>
  </outline>
</glyph>
<glyph name="K" format="1">
  <advance width="569"/>
  <unicode hex="004B"/>
  <outline>
    <contour>
      <point x="669" y="720" type="line"/>
      <point x="258" y="387" type="line"/>
      <point x="504" y="0" type="line"/>
      <point x="453" y="0" type="line"/>
      <point x="206" y="392" type="line"/>
      <point x="207" y="394" type="line"/>
      <point x="609" y="720" type="line"/>
    </contour>
    <contour>
      <point x="251" y="720" type="line"/>
      <point x="72" y="0" type="line"/>
      <point x="28" y="0" type="line"/>
      <point x="207" y="720" type="line"/>
    </contour>
  </outline>
</glyph>
<glyph name="M" format="1">
  <advance width="808"/>
  <unicode hex="004D"/>
  <outline>
    <contour>
      <point x="831" y="720" type="line"/>
      <point x="652" y="0" type="line"/>
      <point x="608" y="0" type="line"/>
      <point x="779" y="688" type="line"/>
      <point x="768" y="688" type="line"/>
      <point x="367" y="0" type="line"/>
      <point x="309" y="0" type="line"/>
      <point x="252" y="688" type="line"/>
      <point x="241" y="688" type="line"/>
      <point x="70" y="0" type="line"/>
      <point x="28" y="0" type="line"/>
      <point x="207" y="720" type="line"/>
      <point x="292" y="720" type="line"/>
      <point x="344" y="44" type="line"/>
      <point x="352" y="44" type="line"/>
      <point x="742" y="720" type="line"/>
    </contour>
  </outline>
</glyph>
<glyph name="N" format="1">
  <advance width="636"/>
  <unicode hex="004E"/>
  <outline>
    <contour>
      <point x="658" y="720" type="line"/>
      <point x="479" y="0" type="line"/>
      <point x="414" y="0" type="line"/>
      <point x="246" y="677" type="line"/>
      <point x="238" y="677" type="line"/>
      <point x="70" y="0" type="line"/>
      <point x="28" y="0" type="line"/>
      <point x="207" y="720" type="line"/>
      <point x="276" y="720" type="line"/>
      <point x="442" y="51" type="line"/>
      <point x="450" y="51" type="line"/>
      <point x="616" y="720" type="line"/>
    </contour>
  </outline>
</glyph>
<glyph name="Q" format="1">
  <advance width="604"/>
  <unicode hex="0051"/>
  <outline>
    <contour>
      <point x="591" y="488" type="line" smooth="yes"/>
      <point x="591" y="437"/>
      <point x="584" y="392"/>
      <point x="572" y="338" type="curve" smooth="yes"/>
      <point x="547" y="226"/>
      <point x="490" y="117"/>
      <point x="413" y="51" type="curve"/>
      <point x="443" y="-12" type="line" smooth="yes"/>
      <point x="461" y="-49"/>
      <point x="480" y="-63"/>
      <point x="516" y="-63" type="curve" smooth="yes"/>
      <point x="530" y="-63"/>
      <point x="544" y="-60"/>
      <point x="558" y="-55" type="curve"/>
      <point x="549" y="-91" type="line"/>
      <point x="534" y="-96"/>
      <point x="517" y="-99"/>
      <point x="499" y="-99" type="curve" smooth="yes"/>
      <point x="457" y="-99"/>
      <point x="427" y="-84"/>
      <point x="405" y="-33" type="curve" smooth="yes"/>
      <point x="380" y="26" type="line"/>
      <point x="342" y="2"/>
      <point x="302" y="-12"/>
      <point x="258" y="-12" type="curve" smooth="yes"/>
      <point x="134" y="-12"/>
      <point x="65" y="83"/>
      <point x="65" y="230" type="curve" smooth="yes"/>
      <point x="65" y="232" type="line" smooth="yes"/>
      <point x="65" y="283"/>
      <point x="72" y="328"/>
      <point x="84" y="382" type="curve" smooth="yes"/>
      <point x="124" y="560"/>
      <point x="242" y="732"/>
      <point x="398" y="732" type="curve" smooth="yes"/>
      <point x="522" y="732"/>
      <point x="591" y="637"/>
      <point x="591" y="490" type="curve" smooth="yes"/>
    </contour>
    <contour>
      <point x="547" y="487" type="curve" smooth="yes"/>
      <point x="547" y="489" type="line" smooth="yes"/>
      <point x="547" y="603"/>
      <point x="501" y="696"/>
      <point x="395" y="696" type="curve" smooth="yes"/>
      <point x="271" y="696"/>
      <point x="173" y="551"/>
      <point x="133" y="401" type="curve" smooth="yes"/>
      <point x="118" y="346"/>
      <point x="109" y="286"/>
      <point x="109" y="233" type="curve" smooth="yes"/>
      <point x="109" y="231" type="line" smooth="yes"/>
      <point x="109" y="117"/>
      <point x="155" y="24"/>
      <point x="261" y="24" type="curve" smooth="yes"/>
      <point x="300" y="24"/>
      <point x="335" y="37"/>
      <point x="366" y="58" type="curve"/>
      <point x="311" y="188" type="line"/>
      <point x="340" y="204" type="line"/>
      <point x="397" y="84" type="line"/>
      <point x="456" y="140"/>
      <point x="499" y="228"/>
      <point x="523" y="319" type="curve" smooth="yes"/>
      <point x="538" y="374"/>
      <point x="547" y="434"/>
    </contour>
  </outline>
</glyph>
<glyph name="U" format="1">
  <advance width="618"/>
  <unicode hex="0055"/>
  <outline>
    <contour>
      <point x="646" y="720" type="line"/>
      <point x="524" y="229" type="line" smooth="yes"/>
      <point x="483" y="64"/>
      <point x="389" y="-12"/>
      <point x="271" y="-12" type="curve" smooth="yes"/>
      <point x="156" y="-12"/>
      <point x="77" y="48"/>
      <point x="77" y="168" type="curve" smooth="yes"/>
      <point x="77" y="202"/>
      <point x="82" y="236"/>
      <point x="90" y="270" type="curve" smooth="yes"/>
      <point x="202" y="720" type="line"/>
      <point x="246" y="720" type="line"/>
      <point x="135" y="272" type="line" smooth="yes"/>
      <point x="126" y="234"/>
      <point x="121" y="200"/>
      <point x="121" y="170" type="curve" smooth="yes"/>
      <point x="121" y="78"/>
      <point x="174" y="24"/>
      <point x="273" y="24" type="curve" smooth="yes"/>
      <point x="371" y="24"/>
      <point x="449" y="86"/>
      <point x="486" y="236" type="curve" smooth="yes"/>
      <point x="606" y="720" type="line"/>
    </contour>
  </outline>
</glyph>
<glyph name="W" format="1">
  <advance width="964"/>
  <unicode hex="0057"/>
  <outline>
    <contour>
      <point x="1017" y="720" type="line"/>
      <point x="640" y="-6" type="line"/>
      <point x="585" y="-6" type="line"/>
      <point x="577" y="673" type="line"/>
      <point x="567" y="673" type="line"/>
      <point x="221" y="-6" type="line"/>
      <point x="166" y="-6" type="line"/>
      <point x="151" y="720" type="line"/>
      <point x="193" y="720" type="line"/>
      <point x="200" y="39" type="line"/>
      <point x="208" y="39" type="line"/>
      <point x="548" y="720" type="line"/>
      <point x="614" y="720" type="line"/>
      <point x="620" y="39" type="line"/>
      <point x="628" y="39" type="line"/>
      <point x="971" y="720" type="line"/>
    </contour>
  </outline>
</glyph>
<glyph name="Z" format="1">
  <advance width="536"/>
  <unicode hex="005A"/>
  <outline>
    <contour>
      <point x="614" y="720" type="line"/>
      <point x="606" y="689" type="line"/>
      <point x="33" y="36" type="line"/>
      <point x="443" y="36" type="line"/>
      <point x="434" y="0" type="line"/>
      <point x="-26" y="0" type="line"/>
      <point x="-18" y="31" type="line"/>
      <point x="555" y="684" type="line"/>
      <point x="165" y="684" type="line"/>
      <point x="174" y="720" type="line"/>
    </contour>
  </outline>
</glyph>
<glyph name="backslash" format="1">
  <advance width="360"/>
  <unicode hex="005C"/>
  <outline>
    <contour>
      <point x="284" y="-95" type="line"/>
      <point x="245" y="-95" type="line"/>
      <point x="137" y="735" type="line"/>
      <point x="176" y="735" type="line"/>
    </contour>
  </outline>
</glyph>
<glyph name="asciicircum" format="1">
  <advance width="550"/>
  <unicode hex="005E"/>
  <outline>
    <contour>
      <point x="528" y="407" type="line"/>
      <point x="499" y="407" type="line"/>
      <point x="380" y="681" type="line"/>
      <point x="125" y="407" type="line"/>
      <point x="92" y="407" type="line"/>
      <point x="366" y="725" type="line"/>
      <point x="412" y="725" type="line"/>
    </contour>
  </outline>
</glyph>
<glyph name="grave" format="1">
  <advance width="500"/>
  <unicode hex="0060"/>
  <outline>
    <contour>
      <point x="405" y="592" type="line"/>
      <point x="381" y="592" type="line"/>
      <point x="281" y="743" type="line"/>
      <point x="342" y="743" type="line"/>
    </contour>
  </outline>
</glyph>
<glyph name="e" format="1">
  <advance width="442"/>
  <unicode hex="0065"/>
  <outline>
    <contour>
      <point x="413" y="355" type="curve" smooth="yes"/>
      <point x="413" y="323"/>
      <point x="407" y="281"/>
      <point x="399" y="251" type="curve"/>
      <point x="84" y="251" type="line"/>
      <point x="79" y="225"/>
      <point x="77" y="198"/>
      <point x="77" y="169" type="curve" smooth="yes"/>
      <point x="77" y="167" type="line" smooth="yes"/>
      <point x="77" y="77"/>
      <point x="116" y="22"/>
      <point x="184" y="22" type="curve" smooth="yes"/>
      <point x="239" y="22"/>
      <point x="278" y="48"/>
      <point x="325" y="89" type="curve"/>
      <point x="346" y="64" type="line"/>
      <point x="298" y="19"/>
      <point x="249" y="-10"/>
      <point x="182" y="-10" type="curve" smooth="yes"/>
      <point x="96" y="-10"/>
      <point x="37" y="57"/>
      <point x="37" y="165" type="curve" smooth="yes"/>
      <point x="37" y="167" type="line" smooth="yes"/>
      <point x="37" y="206"/>
      <point x="42" y="244"/>
      <point x="51" y="280" type="curve" smooth="yes"/>
      <point x="86" y="419"/>
      <point x="181" y="522"/>
      <point x="284" y="522" type="curve" smooth="yes"/>
      <point x="383" y="522"/>
      <point x="413" y="435"/>
    </contour>
    <contour>
      <point x="373" y="353" type="curve" smooth="yes"/>
      <point x="373" y="426"/>
      <point x="353" y="490"/>
      <point x="282" y="490" type="curve" smooth="yes"/>
      <point x="201" y="490"/>
      <point x="120" y="402"/>
      <point x="91" y="283" type="curve"/>
      <point x="366" y="283" type="line"/>
      <point x="371" y="309"/>
      <point x="373" y="329"/>
    </contour>
  </outline>
</glyph>
<glyph name="g" format="1">
  <advance width="498"/>
  <unicode hex="0067"/>
  <outline>
    <contour>
      <point x="483" y="499" type="line"/>
      <point x="371" y="47" type="line" smooth="yes"/>
      <point x="331" y="-116"/>
      <point x="263" y="-190"/>
      <point x="121" y="-190" type="curve" smooth="yes"/>
      <point x="67" y="-190"/>
      <point x="20" y="-179"/>
      <point x="-10" y="-165" type="curve"/>
      <point x="1" y="-121" type="line"/>
      <point x="21" y="-121" type="line"/>
      <point x="35" y="-140"/>
      <point x="66" y="-161"/>
      <point x="134" y="-161" type="curve" smooth="yes"/>
      <point x="239" y="-161"/>
      <point x="294" y="-97"/>
      <point x="325" y="27" type="curve" smooth="yes"/>
      <point x="354" y="142" type="line"/>
      <point x="348" y="142" type="line"/>
      <point x="263" y="27"/>
      <point x="210" y="-10"/>
      <point x="154" y="-10" type="curve" smooth="yes"/>
      <point x="70" y="-10"/>
      <point x="36" y="65"/>
      <point x="36" y="156" type="curve" smooth="yes"/>
      <point x="36" y="158" type="line" smooth="yes"/>
      <point x="36" y="366"/>
      <point x="162" y="522"/>
      <point x="274" y="522" type="curve" smooth="yes"/>
      <point x="342" y="522"/>
      <point x="373" y="480"/>
      <point x="411" y="393" type="curve"/>
      <point x="417" y="393" type="line"/>
      <point x="448" y="521" type="line"/>
    </contour>
    <contour>
      <point x="397" y="313" type="curve" smooth="yes"/>
      <point x="397" y="399"/>
      <point x="343" y="490"/>
      <point x="275" y="490" type="curve" smooth="yes"/>
      <point x="180" y="490"/>
      <point x="77" y="338"/>
      <point x="77" y="160" type="curve" smooth="yes"/>
      <point x="77" y="85"/>
      <point x="96" y="22"/>
      <point x="167" y="22" type="curve" smooth="yes"/>
      <point x="259" y="22"/>
      <point x="397" y="226"/>
    </contour>
  </outline>
</glyph>
<glyph name="h" format="1">
  <advance width="474"/>
  <unicode hex="0068"/>
  <outline>
    <contour>
      <point x="439" y="431" type="curve" smooth="yes"/>
      <point x="439" y="413"/>
      <point x="435" y="387"/>
      <point x="429" y="363" type="curve" smooth="yes"/>
      <point x="339" y="0" type="line"/>
      <point x="299" y="0" type="line"/>
      <point x="388" y="359" type="line" smooth="yes"/>
      <point x="393" y="380"/>
      <point x="397" y="404"/>
      <point x="397" y="421" type="curve" smooth="yes"/>
      <point x="397" y="460"/>
      <point x="379" y="485"/>
      <point x="337" y="485" type="curve" smooth="yes"/>
      <point x="285" y="485"/>
      <point x="218" y="432"/>
      <point x="128" y="308" type="curve"/>
      <point x="52" y="0" type="line"/>
      <point x="12" y="0" type="line"/>
      <point x="196" y="740" type="line"/>
      <point x="241" y="762" type="line"/>
      <point x="144" y="371" type="line"/>
      <point x="150" y="371" type="line"/>
      <point x="222" y="462"/>
      <point x="277" y="517"/>
      <point x="350" y="517" type="curve" smooth="yes"/>
      <point x="410" y="517"/>
      <point x="439" y="483"/>
    </contour>
  </outline>
</glyph>
<glyph name="j" format="1">
  <advance width="212"/>
  <unicode hex="006A"/>
  <outline>
    <contour>
      <point x="248" y="720" type="line"/>
      <point x="229" y="645" type="line"/>
      <point x="175" y="645" type="line"/>
      <point x="194" y="720" type="line"/>
    </contour>
    <contour>
      <point x="190" y="512" type="line"/>
      <point x="38" y="-96" type="line" smooth="yes"/>
      <point x="20" y="-168"/>
      <point x="-22" y="-190"/>
      <point x="-77" y="-190" type="curve" smooth="yes"/>
      <point x="-100" y="-190"/>
      <point x="-119" y="-184"/>
      <point x="-139" y="-175" type="curve"/>
      <point x="-130" y="-141" type="line"/>
      <point x="-113" y="-151"/>
      <point x="-95" y="-157"/>
      <point x="-74" y="-157" type="curve" smooth="yes"/>
      <point x="-32" y="-157"/>
      <point x="-12" y="-135"/>
      <point x="0" y="-87" type="curve" smooth="yes"/>
      <point x="150" y="512" type="line"/>
    </contour>
  </outline>
</glyph>
<glyph name="k" format="1">
  <advance width="428"/>
  <unicode hex="006B"/>
  <outline>
    <contour>
      <point x="474" y="512" type="line"/>
      <point x="183" y="258" type="line"/>
      <point x="353" y="0" type="line"/>
      <point x="305" y="0" type="line"/>
      <point x="139" y="258" type="line"/>
      <point x="139" y="263" type="line"/>
      <point x="422" y="512" type="line"/>
    </contour>
    <contour>
      <point x="241" y="762" type="line"/>
      <point x="52" y="0" type="line"/>
      <point x="12" y="0" type="line"/>
      <point x="196" y="740" type="line"/>
    </contour>
  </outline>
</glyph>
<glyph name="m" format="1">
  <advance width="757"/>
  <unicode hex="006D"/>
  <outline>
    <contour>
      <point x="722" y="431" type="curve" smooth="yes"/>
      <point x="722" y="413"/>
      <point x="718" y="387"/>
      <point x="712" y="363" type="curve" smooth="yes"/>
      <point x="622" y="0" type="line"/>
      <point x="582" y="0" type="line"/>
      <point x="671" y="359" type="line" smooth="yes"/>
      <point x="676" y="380"/>
      <point x="680" y="404"/>
      <point x="680" y="421" type="curve" smooth="yes"/>
      <point x="680" y="460"/>
      <point x="663" y="485"/>
      <point x="621" y="485" type="curve" smooth="yes"/>
      <point x="569" y="485"/>
      <point x="503" y="433"/>
      <point x="413" y="308" type="curve"/>
      <point x="337" y="0" type="line"/>
      <point x="297" y="0" type="line"/>
      <point x="386" y="359" type="line" smooth="yes"/>
      <point x="391" y="380"/>
      <point x="395" y="404"/>
      <point x="395" y="421" type="curve" smooth="yes"/>
      <point x="395" y="460"/>
      <point x="378" y="485"/>
      <point x="336" y="485" type="curve" smooth="yes"/>
      <point x="284" y="485"/>
      <point x="218" y="432"/>
      <point x="128" y="308" type="curve"/>
      <point x="52" y="0" type="line"/>
      <point x="12" y="0" type="line"/>
      <point x="136" y="499" type="line"/>
      <point x="181" y="521" type="line"/>
      <point x="144" y="371" type="line"/>
      <point x="150" y="371" type="line"/>
      <point x="222" y="462"/>
      <point x="276" y="517"/>
      <point x="349" y="517" type="curve" smooth="yes"/>
      <point x="409" y="517"/>
      <point x="437" y="483"/>
      <point x="437" y="431" type="curve" smooth="yes"/>
      <point x="437" y="415"/>
      <point x="434" y="393"/>
      <point x="429" y="371" type="curve"/>
      <point x="435" y="371" type="line"/>
      <point x="507" y="462"/>
      <point x="561" y="517"/>
      <point x="634" y="517" type="curve" smooth="yes"/>
      <point x="694" y="517"/>
      <point x="722" y="483"/>
    </contour>
  </outline>
</glyph>
<glyph name="r" format="1">
  <advance width="353"/>
  <unicode hex="0072"/>
  <outline>
    <contour>
      <point x="400" y="521" type="curve"/>
      <point x="389" y="477" type="line"/>
      <point x="300" y="469"/>
      <point x="208" y="387"/>
      <point x="118" y="267" type="curve"/>
      <point x="52" y="0" type="line"/>
      <point x="12" y="0" type="line"/>
      <point x="136" y="499" type="line"/>
      <point x="181" y="521" type="line"/>
      <point x="132" y="323" type="line"/>
      <point x="138" y="323" type="line"/>
      <point x="230" y="445"/>
      <point x="316" y="520"/>
    </contour>
  </outline>
</glyph>
<glyph name="s" format="1">
  <advance width="389"/>
  <unicode hex="0073"/>
  <outline>
    <contour>
      <point x="383" y="460" type="curve"/>
      <point x="359" y="432" type="line"/>
      <point x="323" y="470"/>
      <point x="279" y="491"/>
      <point x="232" y="491" type="curve" smooth="yes"/>
      <point x="167" y="491"/>
      <point x="122" y="449"/>
      <point x="122" y="391" type="curve" smooth="yes"/>
      <point x="122" y="344"/>
      <point x="144" y="317"/>
      <point x="212" y="282" type="curve" smooth="yes"/>
      <point x="287" y="244"/>
      <point x="324" y="205"/>
      <point x="324" y="141" type="curve" smooth="yes"/>
      <point x="324" y="54"/>
      <point x="253" y="-9"/>
      <point x="160" y="-9" type="curve" smooth="yes"/>
      <point x="89" y="-9"/>
      <point x="36" y="17"/>
      <point x="-10" y="62" type="curve"/>
      <point x="14" y="90" type="line"/>
      <point x="54" y="47"/>
      <point x="99" y="21"/>
      <point x="164" y="21" type="curve" smooth="yes"/>
      <point x="236" y="21"/>
      <point x="285" y="70"/>
      <point x="285" y="136" type="curve" smooth="yes"/>
      <point x="285" y="188"/>
      <point x="259" y="213"/>
      <point x="188" y="251" type="curve" smooth="yes"/>
      <point x="115" y="290"/>
      <point x="83" y="328"/>
      <point x="83" y="386" type="curve" smooth="yes"/>
      <point x="83" y="464"/>
      <point x="144" y="521"/>
      <point x="235" y="521" type="curve" smooth="yes"/>
      <point x="293" y="521"/>
      <point x="343" y="497"/>
    </contour>
  </outline>
</glyph>
<glyph name="t" format="1">
  <advance width="334"/>
  <unicode hex="0074"/>
  <outline>
    <contour>
      <point x="344" y="507" type="line"/>
      <point x="336" y="475" type="line"/>
      <point x="206" y="475" type="line"/>
      <point x="116" y="115" type="line" smooth="yes"/>
      <point x="112" y="99"/>
      <point x="109" y="84"/>
      <point x="109" y="71" type="curve" smooth="yes"/>
      <point x="109" y="40"/>
      <point x="130" y="22"/>
      <point x="165" y="22" type="curve" smooth="yes"/>
      <point x="192" y="22"/>
      <point x="221" y="32"/>
      <point x="261" y="54" type="curve"/>
      <point x="250" y="14" type="line"/>
      <point x="215" y="-2"/>
      <point x="189" y="-10"/>
      <point x="155" y="-10" type="curve" smooth="yes"/>
      <point x="102" y="-10"/>
      <point x="69" y="19"/>
      <point x="69" y="66" type="curve" smooth="yes"/>
      <point x="69" y="79"/>
      <point x="72" y="98"/>
      <point x="76" y="114" type="curve" smooth="yes"/>
      <point x="166" y="475" type="line"/>
      <point x="70" y="475" type="line"/>
      <point x="78" y="507" type="line"/>
      <point x="174" y="507" type="line"/>
      <point x="224" y="710" type="line"/>
      <point x="269" y="732" type="line"/>
      <point x="214" y="507" type="line"/>
    </contour>
  </outline>
</glyph>
<glyph name="u" format="1">
  <advance width="474"/>
  <unicode hex="0075"/>
  <outline>
    <contour>
      <point x="462" y="512" type="line"/>
      <point x="338" y="13" type="line"/>
      <point x="293" y="-9" type="line"/>
      <point x="330" y="141" type="line"/>
      <point x="324" y="141" type="line"/>
      <point x="252" y="50"/>
      <point x="197" y="-5"/>
      <point x="124" y="-5" type="curve" smooth="yes"/>
      <point x="64" y="-5"/>
      <point x="35" y="29"/>
      <point x="35" y="81" type="curve" smooth="yes"/>
      <point x="35" y="99"/>
      <point x="39" y="125"/>
      <point x="45" y="149" type="curve" smooth="yes"/>
      <point x="135" y="512" type="line"/>
      <point x="175" y="512" type="line"/>
      <point x="86" y="153" type="line" smooth="yes"/>
      <point x="81" y="132"/>
      <point x="77" y="108"/>
      <point x="77" y="91" type="curve" smooth="yes"/>
      <point x="77" y="52"/>
      <point x="95" y="27"/>
      <point x="137" y="27" type="curve" smooth="yes"/>
      <point x="189" y="27"/>
      <point x="256" y="80"/>
      <point x="346" y="204" type="curve"/>
      <point x="422" y="512" type="line"/>
    </contour>
  </outline>
</glyph>
<glyph name="v" format="1">
  <advance width="436"/>
  <unicode hex="0076"/>
  <outline>
    <contour>
      <point x="470" y="512" type="line"/>
      <point x="173" y="-6" type="line"/>
      <point x="133" y="-6" type="line"/>
      <point x="94" y="512" type="line"/>
      <point x="134" y="512" type="line"/>
      <point x="162" y="37" type="line"/>
      <point x="428" y="512" type="line"/>
    </contour>
  </outline>
</glyph>
<glyph name="y" format="1">
  <advance width="436"/>
  <unicode hex="0079"/>
  <outline>
    <contour>
      <point x="470" y="512" type="line"/>
      <point x="121" y="-94" type="line" smooth="yes"/>
      <point x="76" y="-172"/>
      <point x="39" y="-193"/>
      <point x="-6" y="-193" type="curve" smooth="yes"/>
      <point x="-43" y="-193"/>
      <point x="-67" y="-184"/>
      <point x="-89" y="-173" type="curve"/>
      <point x="-79" y="-132" type="line"/>
      <point x="-60" y="-132" type="line"/>
      <point x="-49" y="-153"/>
      <point x="-34" y="-164"/>
      <point x="-4" y="-164" type="curve" smooth="yes"/>
      <point x="23" y="-164"/>
      <point x="48" y="-149"/>
      <point x="79" y="-97" type="curve" smooth="yes"/>
      <point x="134" y="-5" type="line"/>
      <point x="94" y="512" type="line"/>
      <point x="133" y="512" type="line"/>
      <point x="163" y="36" type="line"/>
      <point x="428" y="512" type="line"/>
    </contour>
  </outline>
</glyph>
<glyph name="bar" format="1">
  <advance width="228"/>
  <unicode hex="007C"/>
  <outline>
    <contour>
      <point x="258" y="762" type="line"/>
      <point x="22" y="-188" type="line"/>
      <point x="-16" y="-188" type="line"/>
      <point x="220" y="762" type="line"/>
    </contour>
  </outline>
</glyph>
<glyph name="exclamdown" format="1">
  <advance width="230"/>
  <unicode hex="00A1"/>
  <outline>
    <contour>
      <point x="259" y="689" type="curve" smooth="yes"/>
      <point x="259" y="667"/>
      <point x="243" y="651"/>
      <point x="221" y="651" type="curve" smooth="yes"/>
      <point x="199" y="651"/>
      <point x="183" y="667"/>
      <point x="183" y="689" type="curve" smooth="yes"/>
      <point x="183" y="711"/>
      <point x="199" y="727"/>
      <point x="221" y="727" type="curve" smooth="yes"/>
      <point x="243" y="727"/>
      <point x="259" y="711"/>
    </contour>
    <contour>
      <point x="190" y="522" type="line"/>
      <point x="78" y="0" type="line"/>
      <point x="24" y="0" type="line"/>
      <point x="172" y="522" type="line"/>
    </contour>
  </outline>
</glyph>
<glyph name="cent" format="1">
  <advance width="445"/>
  <unicode hex="00A2"/>
  <outline>
    <contour>
      <point x="472" y="607" type="line"/>
      <point x="125" y="42" type="line"/>
      <point x="144" y="28"/>
      <point x="167" y="21"/>
      <point x="193" y="21" type="curve" smooth="yes"/>
      <point x="247" y="21"/>
      <point x="292" y="56"/>
      <point x="338" y="113" type="curve"/>
      <point x="364" y="94" type="line"/>
      <point x="313" y="29"/>
      <point x="256" y="-10"/>
      <point x="189" y="-10" type="curve" smooth="yes"/>
      <point x="159" y="-10"/>
      <point x="131" y="-2"/>
      <point x="108" y="13" type="curve"/>
      <point x="41" y="-95" type="line"/>
      <point x="9" y="-95" type="line"/>
      <point x="86" y="30" type="line"/>
      <point x="56" y="60"/>
      <point x="37" y="105"/>
      <point x="37" y="165" type="curve" smooth="yes"/>
      <point x="37" y="167" type="line" smooth="yes"/>
      <point x="37" y="203"/>
      <point x="42" y="242"/>
      <point x="51" y="279" type="curve" smooth="yes"/>
      <point x="83" y="405"/>
      <point x="167" y="522"/>
      <point x="290" y="522" type="curve" smooth="yes"/>
      <point x="328" y="522"/>
      <point x="354" y="514"/>
      <point x="374" y="500" type="curve"/>
      <point x="440" y="607" type="line"/>
    </contour>
    <contour>
      <point x="356" y="471" type="line"/>
      <point x="337" y="484"/>
      <point x="316" y="491"/>
      <point x="285" y="491" type="curve" smooth="yes"/>
      <point x="192" y="491"/>
      <point x="122" y="398"/>
      <point x="92" y="286" type="curve" smooth="yes"/>
      <point x="81" y="246"/>
      <point x="76" y="209"/>
      <point x="76" y="169" type="curve" smooth="yes"/>
      <point x="76" y="167" type="line" smooth="yes"/>
      <point x="76" y="120"/>
      <point x="87" y="85"/>
      <point x="105" y="61" type="curve"/>
    </contour>
  </outline>
</glyph>
<glyph name="yen" format="1">
  <advance width="600"/>
  <unicode hex="00A5"/>
  <outline>
    <contour>
      <point x="690" y="720" type="line"/>
      <point x="407" y="375" type="line"/>
      <point x="554" y="375" type="line"/>
      <point x="545" y="340" type="line"/>
      <point x="378" y="340" type="line"/>
      <point x="326" y="276" type="line"/>
      <point x="306" y="194" type="line"/>
      <point x="509" y="194" type="line"/>
      <point x="500" y="159" type="line"/>
      <point x="297" y="159" type="line"/>
      <point x="258" y="0" type="line"/>
      <point x="216" y="0" type="line"/>
      <point x="255" y="159" type="line"/>
      <point x="52" y="159" type="line"/>
      <point x="61" y="194" type="line"/>
      <point x="264" y="194" type="line"/>
      <point x="284" y="276" type="line"/>
      <point x="264" y="340" type="line"/>
      <point x="97" y="340" type="line"/>
      <point x="106" y="375" type="line"/>
      <point x="252" y="375" type="line"/>
      <point x="142" y="720" type="line"/>
      <point x="188" y="720" type="line"/>
      <point x="312" y="310" type="line"/>
      <point x="640" y="720" type="line"/>
    </contour>
  </outline>
</glyph>
<glyph name="section" format="1">
  <advance width="568"/>
  <unicode hex="00A7"/>
  <outline>
    <contour>
      <point x="568" y="669" type="curve"/>
      <point x="542" y="639" type="line"/>
      <point x="496" y="675"/>
      <point x="431" y="699"/>
      <point x="364" y="699" type="curve" smooth="yes"/>
      <point x="282" y="699"/>
      <point x="237" y="667"/>
      <point x="237" y="613" type="curve" smooth="yes"/>
      <point x="237" y="566"/>
      <point x="277" y="535"/>
      <point x="390" y="491" type="curve" smooth="yes"/>
      <point x="502" y="447"/>
      <point x="550" y="403"/>
      <point x="550" y="345" type="curve" smooth="yes"/>
      <point x="550" y="269"/>
      <point x="470" y="207"/>
      <point x="343" y="216" type="curve"/>
      <point x="341" y="210" type="line"/>
      <point x="396" y="181"/>
      <point x="424" y="153"/>
      <point x="424" y="106" type="curve" smooth="yes"/>
      <point x="424" y="34"/>
      <point x="350" y="-12"/>
      <point x="253" y="-12" type="curve" smooth="yes"/>
      <point x="172" y="-12"/>
      <point x="107" y="14"/>
      <point x="52" y="51" type="curve"/>
      <point x="78" y="81" type="line"/>
      <point x="124" y="45"/>
      <point x="189" y="21"/>
      <point x="256" y="21" type="curve" smooth="yes"/>
      <point x="338" y="21"/>
      <point x="383" y="53"/>
      <point x="383" y="107" type="curve" smooth="yes"/>
      <point x="383" y="154"/>
      <point x="343" y="185"/>
      <point x="230" y="229" type="curve" smooth="yes"/>
      <point x="118" y="273"/>
      <point x="70" y="317"/>
      <point x="70" y="375" type="curve" smooth="yes"/>
      <point x="70" y="451"/>
      <point x="150" y="513"/>
      <point x="277" y="504" type="curve"/>
      <point x="279" y="510" type="line"/>
      <point x="224" y="539"/>
      <point x="196" y="567"/>
      <point x="196" y="614" type="curve" smooth="yes"/>
      <point x="196" y="686"/>
      <point x="270" y="732"/>
      <point x="367" y="732" type="curve" smooth="yes"/>
      <point x="448" y="732"/>
      <point x="513" y="706"/>
    </contour>
    <contour>
      <point x="507" y="341" type="curve" smooth="yes"/>
      <point x="507" y="378"/>
      <point x="484" y="414"/>
      <point x="391" y="453" type="curve" smooth="yes"/>
      <point x="355" y="468"/>
      <point x="303" y="480"/>
      <point x="258" y="480" type="curve" smooth="yes"/>
      <point x="174" y="480"/>
      <point x="113" y="438"/>
      <point x="113" y="379" type="curve" smooth="yes"/>
      <point x="113" y="342"/>
      <point x="136" y="306"/>
      <point x="229" y="267" type="curve" smooth="yes"/>
      <point x="265" y="252"/>
      <point x="317" y="240"/>
      <point x="362" y="240" type="curve" smooth="yes"/>
      <point x="446" y="240"/>
      <point x="507" y="282"/>
    </contour>
  </outline>
</glyph>
<glyph name="copyright" format="1">
  <advance width="840"/>
  <unicode hex="00A9"/>
  <outline>
    <contour>
      <point x="818" y="360" type="curve" smooth="yes"/>
      <point x="818" y="150"/>
      <point x="656" y="-12"/>
      <point x="446" y="-12" type="curve" smooth="yes"/>
      <point x="236" y="-12"/>
      <point x="74" y="150"/>
      <point x="74" y="360" type="curve" smooth="yes"/>
      <point x="74" y="570"/>
      <point x="236" y="732"/>
      <point x="446" y="732" type="curve" smooth="yes"/>
      <point x="656" y="732"/>
      <point x="818" y="570"/>
    </contour>
    <contour>
      <point x="784" y="360" type="curve" smooth="yes"/>
      <point x="784" y="553"/>
      <point x="639" y="702"/>
      <point x="446" y="702" type="curve" smooth="yes"/>
      <point x="253" y="702"/>
      <point x="108" y="553"/>
      <point x="108" y="360" type="curve" smooth="yes"/>
      <point x="108" y="167"/>
      <point x="253" y="18"/>
      <point x="446" y="18" type="curve" smooth="yes"/>
      <point x="639" y="18"/>
      <point x="784" y="167"/>
    </contour>
    <contour>
      <point x="575" y="286" type="line"/>
      <point x="556" y="210"/>
      <point x="516" y="160"/>
      <point x="443" y="160" type="curve" smooth="yes"/>
      <point x="354" y="160"/>
      <point x="300" y="240"/>
      <point x="300" y="364" type="curve" smooth="yes"/>
      <point x="300" y="365" type="line" smooth="yes"/>
      <point x="300" y="489"/>
      <point x="353" y="569"/>
      <point x="444" y="569" type="curve" smooth="yes"/>
      <point x="511" y="569"/>
      <point x="553" y="529"/>
      <point x="573" y="454" type="curve"/>
      <point x="536" y="442" type="line"/>
      <point x="518" y="504"/>
      <point x="492" y="535"/>
      <point x="444" y="535" type="curve" smooth="yes"/>
      <point x="373" y="535"/>
      <point x="340" y="463"/>
      <point x="340" y="366" type="curve" smooth="yes"/>
      <point x="340" y="365" type="line" smooth="yes"/>
      <point x="340" y="268"/>
      <point x="373" y="195"/>
      <point x="444" y="195" type="curve" smooth="yes"/>
      <point x="495" y="195"/>
      <point x="523" y="233"/>
      <point x="539" y="298" type="curve"/>
    </contour>
  </outline>
</glyph>
<glyph name="ordfeminine" format="1">
  <advance width="370"/>
  <unicode hex="00AA"/>
  <outline>
    <contour>
      <point x="380" y="657" type="curve" smooth="yes"/>
      <point x="380" y="645"/>
      <point x="377" y="629"/>
      <point x="373" y="613" type="curve" smooth="yes"/>
      <point x="332" y="451" type="line" smooth="yes"/>
      <point x="331" y="445"/>
      <point x="330" y="437"/>
      <point x="330" y="431" type="curve" smooth="yes"/>
      <point x="330" y="417"/>
      <point x="339" y="406"/>
      <point x="362" y="403" type="curve"/>
      <point x="356" y="377" type="line"/>
      <point x="315" y="380"/>
      <point x="293" y="403"/>
      <point x="294" y="436" type="curve"/>
      <point x="249" y="391"/>
      <point x="213" y="374"/>
      <point x="171" y="374" type="curve" smooth="yes"/>
      <point x="126" y="374"/>
      <point x="91" y="402"/>
      <point x="91" y="451" type="curve" smooth="yes"/>
      <point x="91" y="531"/>
      <point x="164" y="585"/>
      <point x="330" y="584" type="curve"/>
      <point x="338" y="615" type="line" smooth="yes"/>
      <point x="342" y="630"/>
      <point x="344" y="640"/>
      <point x="344" y="650" type="curve" smooth="yes"/>
      <point x="344" y="682"/>
      <point x="321" y="696"/>
      <point x="277" y="696" type="curve" smooth="yes"/>
      <point x="242" y="696"/>
      <point x="209" y="687"/>
      <point x="172" y="669" type="curve"/>
      <point x="163" y="698" type="line"/>
      <point x="202" y="715"/>
      <point x="238" y="725"/>
      <point x="282" y="725" type="curve" smooth="yes"/>
      <point x="348" y="725"/>
      <point x="380" y="700"/>
    </contour>
    <contour>
      <point x="324" y="292" type="line"/>
      <point x="316" y="261" type="line"/>
      <point x="54" y="261" type="line"/>
      <point x="62" y="292" type="line"/>
    </contour>
    <contour>
      <point x="324" y="560" type="line"/>
      <point x="171" y="561"/>
      <point x="125" y="511"/>
      <point x="125" y="454" type="curve" smooth="yes"/>
      <point x="125" y="421"/>
      <point x="148" y="402"/>
      <point x="182" y="402" type="curve" smooth="yes"/>
      <point x="213" y="402"/>
      <point x="256" y="424"/>
      <point x="302" y="473" type="curve"/>
    </contour>
  </outline>
</glyph>
<glyph name="degree" format="1">
  <advance width="400"/>
  <unicode hex="00B0"/>
  <outline>
    <contour>
      <point x="400" y="581" type="curve" smooth="yes"/>
      <point x="400" y="498"/>
      <point x="338" y="438"/>
      <point x="255" y="438" type="curve" smooth="yes"/>
      <point x="172" y="438"/>
      <point x="110" y="498"/>
      <point x="110" y="581" type="curve" smooth="yes"/>
      <point x="110" y="664"/>
      <point x="172" y="724"/>
      <point x="255" y="724" type="curve" smooth="yes"/>
      <point x="338" y="724"/>
      <point x="400" y="664"/>
    </contour>
    <contour>
      <point x="363" y="581" type="curve" smooth="yes"/>
      <point x="363" y="646"/>
      <point x="317" y="692"/>
      <point x="255" y="692" type="curve" smooth="yes"/>
      <point x="193" y="692"/>
      <point x="147" y="646"/>
      <point x="147" y="581" type="curve" smooth="yes"/>
      <point x="147" y="516"/>
      <point x="193" y="470"/>
      <point x="255" y="470" type="curve" smooth="yes"/>
      <point x="317" y="470"/>
      <point x="363" y="516"/>
    </contour>
  </outline>
</glyph>
<glyph name="paragraph" format="1">
  <advance width="520"/>
  <unicode hex="00B6"/>
  <outline>
    <contour>
      <point x="545" y="720" type="line"/>
      <point x="366" y="0" type="line"/>
      <point x="325" y="0" type="line"/>
      <point x="495" y="684" type="line"/>
      <point x="391" y="684" type="line"/>
      <point x="221" y="0" type="line"/>
      <point x="180" y="0" type="line"/>
      <point x="273" y="379" type="line"/>
      <point x="174" y="390"/>
      <point x="107" y="436"/>
      <point x="107" y="531" type="curve" smooth="yes"/>
      <point x="107" y="637"/>
      <point x="194" y="720"/>
      <point x="350" y="720" type="curve" smooth="yes"/>
    </contour>
  </outline>
</glyph>
<glyph name="periodcentered" format="1">
  <advance width="170"/>
  <unicode hex="00B7"/>
  <outline>
    <contour>
      <point x="128" y="278" type="curve" smooth="yes"/>
      <point x="128" y="256"/>
      <point x="112" y="240"/>
      <point x="90" y="240" type="curve" smooth="yes"/>
      <point x="68" y="240"/>
      <point x="52" y="256"/>
      <point x="52" y="278" type="curve" smooth="yes"/>
      <point x="52" y="300"/>
      <point x="68" y="316"/>
      <point x="90" y="316" type="curve" smooth="yes"/>
      <point x="112" y="316"/>
      <point x="128" y="300"/>
    </contour>
  </outline>
</glyph>
<glyph name="cedilla" format="1">
  <advance width="500"/>
  <unicode hex="00B8"/>
  <outline>
    <contour>
      <point x="272" y="-104" type="curve" smooth="yes"/>
      <point x="272" y="-159"/>
      <point x="214" y="-190"/>
      <point x="119" y="-190" type="curve" smooth="yes"/>
      <point x="99" y="-190"/>
      <point x="76" y="-189"/>
      <point x="54" y="-187" type="curve"/>
      <point x="60" y="-165" type="line"/>
      <point x="75" y="-167"/>
      <point x="90" y="-168"/>
      <point x="103" y="-168" type="curve" smooth="yes"/>
      <point x="185" y="-168"/>
      <point x="226" y="-147"/>
      <point x="226" y="-116" type="curve" smooth="yes"/>
      <point x="226" y="-96"/>
      <point x="211" y="-86"/>
      <point x="188" y="-86" type="curve" smooth="yes"/>
      <point x="169" y="-86"/>
      <point x="152" y="-90"/>
      <point x="131" y="-98" type="curve"/>
      <point x="115" y="-85" type="line"/>
      <point x="186" y="0" type="line"/>
      <point x="219" y="0" type="line"/>
      <point x="169" y="-63" type="line"/>
      <point x="184" y="-58"/>
      <point x="199" y="-56"/>
      <point x="215" y="-56" type="curve" smooth="yes"/>
      <point x="246" y="-56"/>
      <point x="272" y="-73"/>
    </contour>
  </outline>
</glyph>
<glyph name="guillemotright" format="1">
  <advance width="440"/>
  <unicode hex="00BB"/>
  <outline>
    <contour>
      <point x="408" y="256" type="line"/>
      <point x="209" y="80" type="line"/>
      <point x="173" y="80" type="line"/>
      <point x="356" y="261" type="line"/>
      <point x="265" y="432" type="line"/>
      <point x="297" y="432" type="line"/>
    </contour>
    <contour>
      <point x="225" y="256" type="line"/>
      <point x="26" y="80" type="line"/>
      <point x="-10" y="80" type="line"/>
      <point x="173" y="261" type="line"/>
      <point x="82" y="432" type="line"/>
      <point x="114" y="432" type="line"/>
    </contour>
  </outline>
</glyph>
<glyph name="questiondown" format="1">
  <advance width="425"/>
  <unicode hex="00BF"/>
  <outline>
    <contour>
      <point x="371" y="691" type="curve" smooth="yes"/>
      <point x="371" y="669"/>
      <point x="355" y="653"/>
      <point x="333" y="653" type="curve" smooth="yes"/>
      <point x="311" y="653"/>
      <point x="295" y="669"/>
      <point x="295" y="691" type="curve" smooth="yes"/>
      <point x="295" y="713"/>
      <point x="311" y="729"/>
      <point x="333" y="729" type="curve" smooth="yes"/>
      <point x="355" y="729"/>
      <point x="371" y="713"/>
    </contour>
    <contour>
      <point x="356" y="106" type="line"/>
      <point x="304" y="31"/>
      <point x="239" y="-10"/>
      <point x="162" y="-10" type="curve" smooth="yes"/>
      <point x="70" y="-10"/>
      <point x="15" y="40"/>
      <point x="15" y="116" type="curve" smooth="yes"/>
      <point x="15" y="201"/>
      <point x="66" y="251"/>
      <point x="160" y="321" type="curve" smooth="yes"/>
      <point x="235" y="377"/>
      <point x="258" y="412"/>
      <point x="285" y="524" type="curve"/>
      <point x="313" y="524" type="line"/>
      <point x="287" y="391"/>
      <point x="260" y="353"/>
      <point x="176" y="292" type="curve" smooth="yes"/>
      <point x="108" y="243"/>
      <point x="59" y="190"/>
      <point x="59" y="118" type="curve" smooth="yes"/>
      <point x="59" y="55"/>
      <point x="106" y="26"/>
      <point x="167" y="26" type="curve" smooth="yes"/>
      <point x="232" y="26"/>
      <point x="278" y="58"/>
      <point x="326" y="126" type="curve"/>
    </contour>
  </outline>
</glyph>
<glyph name="AE" format="1">
  <advance width="903"/>
  <unicode hex="00C6"/>
  <outline>
    <contour>
      <point x="964" y="720" type="line"/>
      <point x="955" y="684" type="line"/>
      <point x="611" y="684" type="line"/>
      <point x="539" y="396" type="line"/>
      <point x="830" y="396" type="line"/>
      <point x="822" y="360" type="line"/>
      <point x="531" y="360" type="line"/>
      <point x="450" y="36" type="line"/>
      <point x="806" y="36" type="line"/>
      <point x="797" y="0" type="line"/>
      <point x="397" y="0" type="line"/>
      <point x="447" y="201" type="line"/>
      <point x="159" y="201" type="line"/>
      <point x="0" y="0" type="line"/>
      <point x="-48" y="0" type="line"/>
      <point x="522" y="720" type="line"/>
    </contour>
    <contour>
      <point x="567" y="682" type="line"/>
      <point x="539" y="682" type="line"/>
      <point x="187" y="237" type="line"/>
      <point x="456" y="237" type="line"/>
    </contour>
  </outline>
</glyph>
<glyph name="Eth" format="1">
  <advance width="647"/>
  <unicode hex="00D0"/>
  <outline>
    <contour>
      <point x="628" y="458" type="line" smooth="yes"/>
      <point x="628" y="413"/>
      <point x="624" y="378"/>
      <point x="615" y="338" type="curve" smooth="yes"/>
      <point x="567" y="129"/>
      <point x="400" y="0"/>
      <point x="215" y="0" type="curve" smooth="yes"/>
      <point x="63" y="0" type="line"/>
      <point x="153" y="360" type="line"/>
      <point x="56" y="360" type="line"/>
      <point x="65" y="396" type="line"/>
      <point x="162" y="396" type="line"/>
      <point x="242" y="720" type="line"/>
      <point x="363" y="720" type="line" smooth="yes"/>
      <point x="515" y="720"/>
      <point x="628" y="638"/>
      <point x="628" y="460" type="curve" smooth="yes"/>
    </contour>
    <contour>
      <point x="584" y="456" type="curve" smooth="yes"/>
      <point x="584" y="458" type="line" smooth="yes"/>
      <point x="584" y="609"/>
      <point x="492" y="684"/>
      <point x="360" y="684" type="curve" smooth="yes"/>
      <point x="277" y="684" type="line"/>
      <point x="205" y="396" type="line"/>
      <point x="358" y="396" type="line"/>
      <point x="349" y="360" type="line"/>
      <point x="196" y="360" type="line"/>
      <point x="116" y="36" type="line"/>
      <point x="218" y="36" type="line" smooth="yes"/>
      <point x="378" y="36"/>
      <point x="521" y="147"/>
      <point x="568" y="326" type="curve" smooth="yes"/>
      <point x="578" y="364"/>
      <point x="584" y="412"/>
    </contour>
  </outline>
</glyph>
<glyph name="multiply" format="1">
  <advance width="600"/>
  <unicode hex="00D7"/>
  <outline>
    <contour>
      <point x="547" y="160" type="line"/>
      <point x="520" y="133" type="line"/>
      <point x="325" y="330" type="line"/>
      <point x="130" y="133" type="line"/>
      <point x="103" y="160" type="line"/>
      <point x="300" y="355" type="line"/>
      <point x="103" y="550" type="line"/>
      <point x="130" y="577" type="line"/>
      <point x="325" y="380" type="line"/>
      <point x="520" y="577" type="line"/>
      <point x="547" y="550" type="line"/>
      <point x="350" y="355" type="line"/>
    </contour>
  </outline>
</glyph>
<glyph name="Thorn" format="1">
  <advance width="560"/>
  <unicode hex="00DE"/>
  <outline>
    <contour>
      <point x="549" y="407" type="curve" smooth="yes"/>
      <point x="549" y="263"/>
      <point x="428" y="168"/>
      <point x="263" y="168" type="curve" smooth="yes"/>
      <point x="113" y="168" type="line"/>
      <point x="72" y="0" type="line"/>
      <point x="28" y="0" type="line"/>
      <point x="207" y="720" type="line"/>
      <point x="251" y="720" type="line"/>
      <point x="214" y="572" type="line"/>
      <point x="348" y="572" type="line" smooth="yes"/>
      <point x="476" y="572"/>
      <point x="549" y="515"/>
    </contour>
    <contour>
      <point x="504" y="405" type="curve" smooth="yes"/>
      <point x="504" y="487"/>
      <point x="453" y="536"/>
      <point x="343" y="536" type="curve" smooth="yes"/>
      <point x="205" y="536" type="line"/>
      <point x="122" y="204" type="line"/>
      <point x="258" y="204" type="line" smooth="yes"/>
      <point x="405" y="204"/>
      <point x="504" y="278"/>
    </contour>
  </outline>
</glyph>
<glyph name="germandbls" format="1">
  <advance width="556"/>
  <unicode hex="00DF"/>
  <outline>
    <contour>
      <point x="532" y="626" type="curve" smooth="yes"/>
      <point x="532" y="510"/>
      <point x="438" y="445"/>
      <point x="352" y="414" type="curve"/>
      <point x="350" y="406" type="line"/>
      <point x="437" y="378"/>
      <point x="500" y="302"/>
      <point x="500" y="206" type="curve" smooth="yes"/>
      <point x="500" y="76"/>
      <point x="402" y="-10"/>
      <point x="292" y="-10" type="curve" smooth="yes"/>
      <point x="228" y="-10"/>
      <point x="178" y="11"/>
      <point x="140" y="45" type="curve"/>
      <point x="164" y="69" type="line"/>
      <point x="200" y="40"/>
      <point x="238" y="22"/>
      <point x="293" y="22" type="curve" smooth="yes"/>
      <point x="385" y="22"/>
      <point x="459" y="93"/>
      <point x="459" y="204" type="curve" smooth="yes"/>
      <point x="459" y="303"/>
      <point x="394" y="382"/>
      <point x="261" y="399" type="curve"/>
      <point x="268" y="429" type="line"/>
      <point x="391" y="430"/>
      <point x="491" y="518"/>
      <point x="491" y="617" type="curve" smooth="yes"/>
      <point x="491" y="688"/>
      <point x="443" y="727"/>
      <point x="369" y="727" type="curve" smooth="yes"/>
      <point x="283" y="727"/>
      <point x="220" y="679"/>
      <point x="193" y="569" type="curve" smooth="yes"/>
      <point x="5" y="-188" type="line"/>
      <point x="-35" y="-188" type="line"/>
      <point x="152" y="565" type="line" smooth="yes"/>
      <point x="185" y="697"/>
      <point x="259" y="759"/>
      <point x="375" y="759" type="curve" smooth="yes"/>
      <point x="466" y="759"/>
      <point x="532" y="708"/>
    </contour>
  </outline>
</glyph>
<glyph name="ccedilla" format="1">
  <advance width="426"/>
  <unicode hex="00E7"/>
  <outline>
    <contour>
      <point x="421" y="397" type="curve"/>
      <point x="387" y="385" type="line"/>
      <point x="373" y="449"/>
      <point x="346" y="490"/>
      <point x="283" y="490" type="curve" smooth="yes"/>
      <point x="190" y="490"/>
      <point x="123" y="397"/>
      <point x="93" y="286" type="curve" smooth="yes"/>
      <point x="82" y="246"/>
      <point x="77" y="209"/>
      <point x="77" y="169" type="curve" smooth="yes"/>
      <point x="77" y="167" type="line" smooth="yes"/>
      <point x="77" y="68"/>
      <point x="124" y="22"/>
      <point x="191" y="22" type="curve" smooth="yes"/>
      <point x="245" y="22"/>
      <point x="287" y="57"/>
      <point x="333" y="114" type="curve"/>
      <point x="360" y="94" type="line"/>
      <point x="310" y="30"/>
      <point x="256" y="-8"/>
      <point x="191" y="-10" type="curve"/>
      <point x="149" y="-63" type="line"/>
      <point x="164" y="-58"/>
      <point x="179" y="-56"/>
      <point x="195" y="-56" type="curve" smooth="yes"/>
      <point x="226" y="-56"/>
      <point x="252" y="-73"/>
      <point x="252" y="-104" type="curve" smooth="yes"/>
      <point x="252" y="-159"/>
      <point x="194" y="-190"/>
      <point x="99" y="-190" type="curve" smooth="yes"/>
      <point x="79" y="-190"/>
      <point x="56" y="-189"/>
      <point x="34" y="-187" type="curve"/>
      <point x="40" y="-165" type="line"/>
      <point x="55" y="-167"/>
      <point x="70" y="-168"/>
      <point x="83" y="-168" type="curve" smooth="yes"/>
      <point x="165" y="-168"/>
      <point x="206" y="-147"/>
      <point x="206" y="-116" type="curve" smooth="yes"/>
      <point x="206" y="-96"/>
      <point x="191" y="-86"/>
      <point x="168" y="-86" type="curve" smooth="yes"/>
      <point x="149" y="-86"/>
      <point x="132" y="-90"/>
      <point x="111" y="-98" type="curve"/>
      <point x="95" y="-85" type="line"/>
      <point x="160" y="-8" type="line"/>
      <point x="90" y="4"/>
      <point x="37" y="64"/>
      <point x="37" y="165" type="curve" smooth="yes"/>
      <point x="37" y="167" type="line" smooth="yes"/>
      <point x="37" y="203"/>
      <point x="42" y="242"/>
      <point x="51" y="279" type="curve" smooth="yes"/>
      <point x="83" y="405"/>
      <point x="165" y="522"/>
      <point x="288" y="522" type="curve" smooth="yes"/>
      <point x="366" y="522"/>
      <point x="406" y="468"/>
    </contour>
  </outline>
</glyph>
<glyph name="eth" format="1">
  <advance width="483"/>
  <unicode hex="00F0"/>
  <outline>
    <contour>
      <point x="514" y="762" type="line"/>
      <point x="505" y="724" type="line"/>
      <point x="414" y="676" type="line"/>
      <point x="444" y="613"/>
      <point x="459" y="546"/>
      <point x="459" y="474" type="curve" smooth="yes"/>
      <point x="459" y="472" type="line" smooth="yes"/>
      <point x="459" y="407"/>
      <point x="448" y="339"/>
      <point x="428" y="259" type="curve" smooth="yes"/>
      <point x="382" y="77"/>
      <point x="285" y="-10"/>
      <point x="185" y="-10" type="curve" smooth="yes"/>
      <point x="100" y="-10"/>
      <point x="37" y="51"/>
      <point x="37" y="165" type="curve" smooth="yes"/>
      <point x="37" y="167" type="line" smooth="yes"/>
      <point x="37" y="202"/>
      <point x="41" y="238"/>
      <point x="50" y="274" type="curve" smooth="yes"/>
      <point x="81" y="402"/>
      <point x="167" y="522"/>
      <point x="287" y="522" type="curve" smooth="yes"/>
      <point x="364" y="522"/>
      <point x="408" y="462"/>
      <point x="419" y="380" type="curve"/>
      <point x="425" y="380" type="line"/>
      <point x="438" y="497"/>
      <point x="421" y="584"/>
      <point x="382" y="659" type="curve"/>
      <point x="251" y="590" type="line"/>
      <point x="261" y="628" type="line"/>
      <point x="367" y="684" type="line"/>
      <point x="354" y="706"/>
      <point x="339" y="727"/>
      <point x="322" y="747" type="curve"/>
      <point x="362" y="762" type="line"/>
      <point x="376" y="742"/>
      <point x="389" y="722"/>
      <point x="400" y="702" type="curve"/>
    </contour>
    <contour>
      <point x="394" y="341" type="curve" smooth="yes"/>
      <point x="394" y="343" type="line" smooth="yes"/>
      <point x="394" y="442"/>
      <point x="351" y="490"/>
      <point x="285" y="490" type="curve" smooth="yes"/>
      <point x="189" y="490"/>
      <point x="120" y="393"/>
      <point x="93" y="285" type="curve" smooth="yes"/>
      <point x="83" y="246"/>
      <point x="78" y="209"/>
      <point x="78" y="171" type="curve" smooth="yes"/>
      <point x="78" y="169" type="line" smooth="yes"/>
      <point x="78" y="70"/>
      <point x="121" y="22"/>
      <point x="187" y="22" type="curve" smooth="yes"/>
      <point x="283" y="22"/>
      <point x="352" y="119"/>
      <point x="379" y="227" type="curve" smooth="yes"/>
      <point x="389" y="266"/>
      <point x="394" y="303"/>
    </contour>
  </outline>
</glyph>
<glyph name="oslash" format="1">
  <advance width="472"/>
  <unicode hex="00F8"/>
  <outline>
    <contour>
      <point x="518" y="607" type="line"/>
      <point x="406" y="460" type="line"/>
      <point x="424" y="432"/>
      <point x="435" y="394"/>
      <point x="435" y="347" type="curve" smooth="yes"/>
      <point x="435" y="345" type="line" smooth="yes"/>
      <point x="435" y="310"/>
      <point x="431" y="274"/>
      <point x="422" y="238" type="curve" smooth="yes"/>
      <point x="391" y="110"/>
      <point x="305" y="-10"/>
      <point x="185" y="-10" type="curve" smooth="yes"/>
      <point x="144" y="-10"/>
      <point x="108" y="4"/>
      <point x="82" y="32" type="curve"/>
      <point x="-14" y="-95" type="line"/>
      <point x="-46" y="-95" type="line"/>
      <point x="66" y="52" type="line"/>
      <point x="48" y="80"/>
      <point x="37" y="118"/>
      <point x="37" y="165" type="curve" smooth="yes"/>
      <point x="37" y="167" type="line" smooth="yes"/>
      <point x="37" y="202"/>
      <point x="41" y="238"/>
      <point x="50" y="274" type="curve" smooth="yes"/>
      <point x="81" y="402"/>
      <point x="167" y="522"/>
      <point x="287" y="522" type="curve" smooth="yes"/>
      <point x="328" y="522"/>
      <point x="364" y="508"/>
      <point x="390" y="480" type="curve"/>
      <point x="486" y="607" type="line"/>
    </contour>
    <contour>
      <point x="368" y="451" type="line"/>
      <point x="348" y="478"/>
      <point x="320" y="491"/>
      <point x="285" y="491" type="curve" smooth="yes"/>
      <point x="189" y="491"/>
      <point x="119" y="394"/>
      <point x="92" y="285" type="curve" smooth="yes"/>
      <point x="82" y="246"/>
      <point x="77" y="209"/>
      <point x="77" y="171" type="curve" smooth="yes"/>
      <point x="77" y="169" type="line" smooth="yes"/>
      <point x="77" y="135"/>
      <point x="82" y="108"/>
      <point x="91" y="85" type="curve"/>
    </contour>
    <contour>
      <point x="395" y="341" type="curve" smooth="yes"/>
      <point x="395" y="343" type="line" smooth="yes"/>
      <point x="395" y="377"/>
      <point x="390" y="404"/>
      <point x="381" y="426" type="curve"/>
      <point x="104" y="61" type="line"/>
      <point x="124" y="34"/>
      <point x="152" y="21"/>
      <point x="187" y="21" type="curve" smooth="yes"/>
      <point x="283" y="21"/>
      <point x="353" y="118"/>
      <point x="380" y="227" type="curve" smooth="yes"/>
      <point x="390" y="266"/>
      <point x="395" y="303"/>
    </contour>
  </outline>
</glyph>
<glyph name="thorn" format="1">
  <advance width="498"/>
  <unicode hex="00FE"/>
  <outline>
    <contour>
      <point x="462" y="354" type="line" smooth="yes"/>
      <point x="462" y="146"/>
      <point x="336" y="-10"/>
      <point x="224" y="-10" type="curve" smooth="yes"/>
      <point x="156" y="-10"/>
      <point x="125" y="32"/>
      <point x="87" y="119" type="curve"/>
      <point x="81" y="119" type="line"/>
      <point x="5" y="-188" type="line"/>
      <point x="-35" y="-188" type="line"/>
      <point x="196" y="740" type="line"/>
      <point x="241" y="762" type="line"/>
      <point x="144" y="370" type="line"/>
      <point x="150" y="370" type="line"/>
      <point x="235" y="485"/>
      <point x="288" y="522"/>
      <point x="344" y="522" type="curve" smooth="yes"/>
      <point x="428" y="522"/>
      <point x="462" y="447"/>
      <point x="462" y="356" type="curve" smooth="yes"/>
    </contour>
    <contour>
      <point x="421" y="352" type="curve" smooth="yes"/>
      <point x="421" y="427"/>
      <point x="402" y="490"/>
      <point x="331" y="490" type="curve" smooth="yes"/>
      <point x="239" y="490"/>
      <point x="101" y="286"/>
      <point x="101" y="199" type="curve" smooth="yes"/>
      <point x="101" y="113"/>
      <point x="155" y="22"/>
      <point x="223" y="22" type="curve" smooth="yes"/>
      <point x="318" y="22"/>
      <point x="421" y="174"/>
    </contour>
  </outline>
</glyph>
<glyph name="dotlessi" format="1">
  <advance width="212"/>
  <unicode hex="0131"/>
  <outline>
    <contour>
      <point x="190" y="512" type="line"/>
      <point x="62" y="0" type="line"/>
      <point x="22" y="0" type="line"/>
      <point x="150" y="512" type="line"/>
    </contour>
  </outline>
</glyph>
<glyph name="Lslash" format="1">
  <advance width="535"/>
  <unicode hex="0141"/>
  <outline>
    <contour>
      <point x="463" y="36" type="line"/>
      <point x="454" y="0" type="line"/>
      <point x="63" y="0" type="line"/>
      <point x="147" y="339" type="line"/>
      <point x="39" y="293" type="line"/>
      <point x="50" y="335" type="line"/>
      <point x="157" y="380" type="line"/>
      <point x="242" y="720" type="line"/>
      <point x="286" y="720" type="line"/>
      <point x="207" y="402" type="line"/>
      <point x="377" y="474" type="line"/>
      <point x="367" y="432" type="line"/>
      <point x="197" y="360" type="line"/>
      <point x="116" y="36" type="line"/>
    </contour>
  </outline>
</glyph>
<glyph name="lslash" format="1">
  <advance width="282"/>
  <unicode hex="0142"/>
  <outline>
    <contour>
      <point x="296" y="438" type="line"/>
      <point x="286" y="398" type="line"/>
      <point x="185" y="355" type="line"/>
      <point x="97" y="0" type="line"/>
      <point x="57" y="0" type="line"/>
      <point x="141" y="337" type="line"/>
      <point x="40" y="294" type="line"/>
      <point x="50" y="334" type="line"/>
      <point x="151" y="376" type="line"/>
      <point x="241" y="740" type="line"/>
      <point x="286" y="762" type="line"/>
      <point x="195" y="395" type="line"/>
    </contour>
  </outline>
</glyph>
<glyph name="oe" format="1">
  <advance width="781"/>
  <unicode hex="0153"/>
  <outline>
    <contour>
      <point x="752" y="355" type="curve" smooth="yes"/>
      <point x="752" y="323"/>
      <point x="746" y="281"/>
      <point x="738" y="251" type="curve"/>
      <point x="424" y="251" type="line"/>
      <point x="419" y="225"/>
      <point x="417" y="198"/>
      <point x="417" y="169" type="curve" smooth="yes"/>
      <point x="417" y="167" type="line" smooth="yes"/>
      <point x="417" y="75"/>
      <point x="456" y="22"/>
      <point x="528" y="22" type="curve" smooth="yes"/>
      <point x="576" y="22"/>
      <point x="617" y="48"/>
      <point x="664" y="89" type="curve"/>
      <point x="685" y="64" type="line"/>
      <point x="637" y="19"/>
      <point x="588" y="-10"/>
      <point x="526" y="-10" type="curve" smooth="yes"/>
      <point x="445" y="-10"/>
      <point x="393" y="46"/>
      <point x="388" y="150" type="curve"/>
      <point x="379" y="150" type="line"/>
      <point x="338" y="60"/>
      <point x="269" y="-10"/>
      <point x="178" y="-10" type="curve" smooth="yes"/>
      <point x="101" y="-10"/>
      <point x="37" y="51"/>
      <point x="37" y="165" type="curve" smooth="yes"/>
      <point x="37" y="167" type="line" smooth="yes"/>
      <point x="37" y="202"/>
      <point x="41" y="239"/>
      <point x="50" y="274" type="curve" smooth="yes"/>
      <point x="82" y="405"/>
      <point x="169" y="522"/>
      <point x="282" y="522" type="curve" smooth="yes"/>
      <point x="365" y="522"/>
      <point x="419" y="461"/>
      <point x="423" y="360" type="curve"/>
      <point x="429" y="360" type="line"/>
      <point x="472" y="457"/>
      <point x="541" y="522"/>
      <point x="622" y="522" type="curve" smooth="yes"/>
      <point x="721" y="522"/>
      <point x="752" y="435"/>
    </contour>
    <contour>
      <point x="712" y="353" type="curve" smooth="yes"/>
      <point x="712" y="426"/>
      <point x="690" y="490"/>
      <point x="617" y="490" type="curve" smooth="yes"/>
      <point x="540" y="490"/>
      <point x="460" y="402"/>
      <point x="431" y="283" type="curve"/>
      <point x="705" y="283" type="line"/>
      <point x="710" y="309"/>
      <point x="712" y="329"/>
    </contour>
    <contour>
      <point x="393" y="341" type="curve" smooth="yes"/>
      <point x="393" y="343" type="line" smooth="yes"/>
      <point x="393" y="437"/>
      <point x="349" y="490"/>
      <point x="280" y="490" type="curve" smooth="yes"/>
      <point x="191" y="490"/>
      <point x="121" y="395"/>
      <point x="93" y="285" type="curve" smooth="yes"/>
      <point x="83" y="246"/>
      <point x="78" y="209"/>
      <point x="78" y="171" type="curve" smooth="yes"/>
      <point x="78" y="169" type="line" smooth="yes"/>
      <point x="78" y="70"/>
      <point x="123" y="22"/>
      <point x="180" y="22" type="curve" smooth="yes"/>
      <point x="276" y="22"/>
      <point x="351" y="119"/>
      <point x="378" y="227" type="curve" smooth="yes"/>
      <point x="388" y="266"/>
      <point x="393" y="303"/>
    </contour>
  </outline>
</glyph>
<glyph name="circumflex" format="1">
  <advance width="500"/>
  <unicode hex="02C6"/>
  <outline>
    <contour>
      <point x="481" y="587" type="line"/>
      <point x="457" y="587" type="line"/>
      <point x="363" y="701" type="line"/>
      <point x="213" y="587" type="line"/>
      <point x="183" y="587" type="line"/>
      <point x="349" y="743" type="line"/>
      <point x="393" y="743" type="line"/>
    </contour>
  </outline>
</glyph>
<glyph name="breve" format="1">
  <advance width="500"/>
  <unicode hex="02D8"/>
  <outline>
    <contour>
      <point x="515" y="748" type="line"/>
      <point x="485" y="647"/>
      <point x="423" y="589"/>
      <point x="337" y="589" type="curve" smooth="yes"/>
      <point x="264" y="589"/>
      <point x="222" y="633"/>
      <point x="222" y="706" type="curve" smooth="yes"/>
      <point x="222" y="719"/>
      <point x="224" y="733"/>
      <point x="227" y="748" type="curve"/>
      <point x="257" y="748" type="line"/>
      <point x="256" y="740"/>
      <point x="255" y="733"/>
      <point x="255" y="726" type="curve" smooth="yes"/>
      <point x="255" y="661"/>
      <point x="290" y="632"/>
      <point x="347" y="632" type="curve" smooth="yes"/>
      <point x="409" y="632"/>
      <point x="453" y="670"/>
      <point x="483" y="748" type="curve"/>
    </contour>
  </outline>
</glyph>
<glyph name="tilde" format="1">
  <advance width="500"/>
  <unicode hex="02DC"/>
  <outline>
    <contour>
      <point x="505" y="688" type="line"/>
      <point x="494" y="624"/>
      <point x="466" y="593"/>
      <point x="412" y="593" type="curve" smooth="yes"/>
      <point x="354" y="593"/>
      <point x="312" y="654"/>
      <point x="270" y="654" type="curve" smooth="yes"/>
      <point x="240" y="654"/>
      <point x="222" y="634"/>
      <point x="212" y="595" type="curve"/>
      <point x="186" y="595" type="line"/>
      <point x="197" y="659"/>
      <point x="227" y="690"/>
      <point x="277" y="690" type="curve" smooth="yes"/>
      <point x="337" y="690"/>
      <point x="379" y="629"/>
      <point x="421" y="629" type="curve" smooth="yes"/>
      <point x="451" y="629"/>
      <point x="469" y="649"/>
      <point x="479" y="688" type="curve"/>
    </contour>
  </outline>
</glyph>
<glyph name="quoteright" format="1">
  <advance width="170"/>
  <unicode hex="2019"/>
  <unicode hex="02BC"/>
  <outline>
    <contour>
      <point x="256" y="720" type="line"/>
      <point x="139" y="525" type="line"/>
      <point x="107" y="525" type="line"/>
      <point x="197" y="720" type="line"/>
    </contour>
  </outline>
</glyph>
<glyph name="quotedblbase" format="1">
  <advance width="300"/>
  <unicode hex="201E"/>
  <outline>
    <contour>
      <point x="214" y="75" type="line"/>
      <point x="97" y="-120" type="line"/>
      <point x="65" y="-120" type="line"/>
      <point x="155" y="75" type="line"/>
    </contour>
    <contour>
      <point x="84" y="75" type="line"/>
      <point x="-33" y="-120" type="line"/>
      <point x="-65" y="-120" type="line"/>
      <point x="25" y="75" type="line"/>
    </contour>
  </outline>
</glyph>
<glyph name="ellipsis" format="1">
  <advance width="550"/>
  <unicode hex="2026"/>
  <outline>
    <contour>
      <point x="448" y="31" type="curve" smooth="yes"/>
      <point x="448" y="9"/>
      <point x="432" y="-7"/>
      <point x="410" y="-7" type="curve" smooth="yes"/>
      <point x="388" y="-7"/>
      <point x="372" y="9"/>
      <point x="372" y="31" type="curve" smooth="yes"/>
      <point x="372" y="53"/>
      <point x="388" y="69"/>
      <point x="410" y="69" type="curve" smooth="yes"/>
      <point x="432" y="69"/>
      <point x="448" y="53"/>
    </contour>
    <contour>
      <point x="258" y="31" type="curve" smooth="yes"/>
      <point x="258" y="9"/>
      <point x="242" y="-7"/>
      <point x="220" y="-7" type="curve" smooth="yes"/>
      <point x="198" y="-7"/>
      <point x="182" y="9"/>
      <point x="182" y="31" type="curve" smooth="yes"/>
      <point x="182" y="53"/>
      <point x="198" y="69"/>
      <point x="220" y="69" type="curve" smooth="yes"/>
      <point x="242" y="69"/>
      <point x="258" y="53"/>
    </contour>
    <contour>
      <point x="68" y="31" type="curve" smooth="yes"/>
      <point x="68" y="9"/>
      <point x="52" y="-7"/>
      <point x="30" y="-7" type="curve" smooth="yes"/>
      <point x="8" y="-7"/>
      <point x="-8" y="9"/>
      <point x="-8" y="31" type="curve" smooth="yes"/>
      <point x="-8" y="53"/>
      <point x="8" y="69"/>
      <point x="30" y="69" type="curve" smooth="yes"/>
      <point x="52" y="69"/>
      <point x="68" y="53"/>
    </contour>
  </outline>
</glyph>
<glyph name="guilsinglleft" format="1">
  <advance width="257"/>
  <unicode hex="2039"/>
  <outline>
    <contour>
      <point x="267" y="432" type="line"/>
      <point x="84" y="251" type="line"/>
      <point x="175" y="80" type="line"/>
      <point x="143" y="80" type="line"/>
      <point x="32" y="256" type="line"/>
      <point x="231" y="432" type="line"/>
    </contour>
  </outline>
</glyph>
<glyph name="Euro" format="1">
  <advance width="566"/>
  <unicode hex="20AC"/>
  <outline>
    <contour>
      <point x="579" y="517" type="curve"/>
      <point x="539" y="507" type="line"/>
      <point x="539" y="628"/>
      <point x="497" y="697"/>
      <point x="399" y="697" type="curve" smooth="yes"/>
      <point x="288" y="697"/>
      <point x="198" y="585"/>
      <point x="150" y="453" type="curve"/>
      <point x="389" y="453" type="line"/>
      <point x="380" y="415" type="line"/>
      <point x="137" y="415" type="line"/>
      <point x="125" y="374"/>
      <point x="116" y="334"/>
      <point x="112" y="295" type="curve"/>
      <point x="350" y="295" type="line"/>
      <point x="341" y="257" type="line"/>
      <point x="109" y="257" type="line"/>
      <point x="108" y="249"/>
      <point x="108" y="241"/>
      <point x="108" y="233" type="curve" smooth="yes"/>
      <point x="108" y="231" type="line" smooth="yes"/>
      <point x="108" y="116"/>
      <point x="152" y="23"/>
      <point x="259" y="23" type="curve" smooth="yes"/>
      <point x="350" y="23"/>
      <point x="416" y="90"/>
      <point x="468" y="198" type="curve"/>
      <point x="504" y="182" type="line"/>
      <point x="444" y="59"/>
      <point x="362" y="-12"/>
      <point x="256" y="-12" type="curve" smooth="yes"/>
      <point x="132" y="-12"/>
      <point x="65" y="83"/>
      <point x="65" y="230" type="curve" smooth="yes"/>
      <point x="65" y="232" type="line" smooth="yes"/>
      <point x="65" y="278"/>
      <point x="70" y="316"/>
      <point x="82" y="371" type="curve" smooth="yes"/>
      <point x="123" y="555"/>
      <point x="241" y="732"/>
      <point x="402" y="732" type="curve" smooth="yes"/>
      <point x="521" y="732"/>
      <point x="580" y="652"/>
    </contour>
  </outline>
</glyph>
<glyph name="uni2117" format="1">
  <advance width="840"/>
  <unicode hex="2117"/>
  <outline>
    <contour>
      <point x="818" y="360" type="curve" smooth="yes"/>
      <point x="818" y="150"/>
      <point x="656" y="-12"/>
      <point x="446" y="-12" type="curve" smooth="yes"/>
      <point x="236" y="-12"/>
      <point x="74" y="150"/>
      <point x="74" y="360" type="curve" smooth="yes"/>
      <point x="74" y="570"/>
      <point x="236" y="732"/>
      <point x="446" y="732" type="curve" smooth="yes"/>
      <point x="656" y="732"/>
      <point x="818" y="570"/>
    </contour>
    <contour>
      <point x="784" y="360" type="curve" smooth="yes"/>
      <point x="784" y="553"/>
      <point x="639" y="702"/>
      <point x="446" y="702" type="curve" smooth="yes"/>
      <point x="253" y="702"/>
      <point x="108" y="553"/>
      <point x="108" y="360" type="curve" smooth="yes"/>
      <point x="108" y="167"/>
      <point x="253" y="18"/>
      <point x="446" y="18" type="curve" smooth="yes"/>
      <point x="639" y="18"/>
      <point x="784" y="167"/>
    </contour>
    <contour>
      <point x="597" y="446" type="curve" smooth="yes"/>
      <point x="597" y="374"/>
      <point x="548" y="329"/>
      <point x="461" y="329" type="curve" smooth="yes"/>
      <point x="387" y="329" type="line"/>
      <point x="387" y="161" type="line"/>
      <point x="346" y="161" type="line"/>
      <point x="346" y="562" type="line"/>
      <point x="464" y="562" type="line" smooth="yes"/>
      <point x="548" y="562"/>
      <point x="597" y="518"/>
    </contour>
    <contour>
      <point x="556" y="445" type="curve" smooth="yes"/>
      <point x="556" y="496"/>
      <point x="524" y="526"/>
      <point x="461" y="526" type="curve" smooth="yes"/>
      <point x="387" y="526" type="line"/>
      <point x="387" y="365" type="line"/>
      <point x="464" y="365" type="line" smooth="yes"/>
      <point x="523" y="365"/>
      <point x="556" y="392"/>
    </contour>
  </outline>
</glyph>
<glyph name="trademark" format="1">
  <advance width="780"/>
  <unicode hex="2122"/>
  <outline>
    <contour>
      <point x="820" y="720" type="line"/>
      <point x="735" y="380" type="line"/>
      <point x="706" y="380" type="line"/>
      <point x="785" y="695" type="line"/>
      <point x="782" y="695" type="line"/>
      <point x="589" y="380" type="line"/>
      <point x="548" y="380" type="line"/>
      <point x="513" y="695" type="line"/>
      <point x="510" y="695" type="line"/>
      <point x="431" y="380" type="line"/>
      <point x="400" y="380" type="line"/>
      <point x="485" y="720" type="line"/>
      <point x="540" y="720" type="line"/>
      <point x="573" y="409" type="line"/>
      <point x="576" y="409" type="line"/>
      <point x="765" y="720" type="line"/>
    </contour>
    <contour>
      <point x="414" y="720" type="line"/>
      <point x="407" y="693" type="line"/>
      <point x="292" y="693" type="line"/>
      <point x="214" y="380" type="line"/>
      <point x="182" y="380" type="line"/>
      <point x="260" y="693" type="line"/>
      <point x="145" y="693" type="line"/>
      <point x="152" y="720" type="line"/>
    </contour>
  </outline>
</glyph>
<glyph name="apple" format="1">
  <advance width="500"/>
  <unicode hex="F8FF"/>
  <outline>
    <contour>
      <point x="535" y="537" type="line"/>
      <point x="334" y="507" type="line"/>
      <point x="421" y="346" type="line"/>
      <point x="421" y="344" type="line"/>
      <point x="258" y="208" type="line"/>
      <point x="433" y="140" type="line"/>
      <point x="407" y="98" type="line"/>
      <point x="244" y="192" type="line"/>
      <point x="208" y="0" type="line"/>
      <point x="159" y="0" type="line"/>
      <point x="224" y="193" type="line"/>
      <point x="21" y="138" type="line"/>
      <point x="17" y="183" type="line"/>
      <point x="218" y="213" type="line"/>
      <point x="131" y="374" type="line"/>
      <point x="131" y="376" type="line"/>
      <point x="294" y="512" type="line"/>
      <point x="119" y="580" type="line"/>
      <point x="145" y="622" type="line"/>
      <point x="308" y="528" type="line"/>
      <point x="344" y="720" type="line"/>
      <point x="393" y="720" type="line"/>
      <point x="328" y="527" type="line"/>
      <point x="531" y="582" type="line"/>
    </contour>
    <contour>
      <point x="370" y="350" type="line"/>
      <point x="311" y="499" type="line"/>
      <point x="182" y="370" type="line"/>
      <point x="241" y="221" type="line"/>
    </contour>
  </outline>
</glyph>
<glyph name="a.salt" format="1">
  <advance width="472"/>
  <outline>
    <contour>
      <point x="422" y="420" type="curve" smooth="yes"/>
      <point x="422" y="402"/>
      <point x="420" y="383"/>
      <point x="414" y="360" type="curve" smooth="yes"/>
      <point x="350" y="103" type="line" smooth="yes"/>
      <point x="348" y="93"/>
      <point x="346" y="80"/>
      <point x="346" y="71" type="curve" smooth="yes"/>
      <point x="346" y="46"/>
      <point x="359" y="27"/>
      <point x="388" y="22" type="curve"/>
      <point x="381" y="-5" type="line"/>
      <point x="328" y="0"/>
      <point x="300" y="37"/>
      <point x="307" y="89" type="curve"/>
      <point x="300" y="89" type="line"/>
      <point x="229" y="20"/>
      <point x="183" y="-8"/>
      <point x="124" y="-8" type="curve" smooth="yes"/>
      <point x="62" y="-8"/>
      <point x="14" y="31"/>
      <point x="14" y="101" type="curve" smooth="yes"/>
      <point x="14" y="222"/>
      <point x="125" y="306"/>
      <point x="359" y="302" type="curve"/>
      <point x="374" y="360" type="line" smooth="yes"/>
      <point x="379" y="379"/>
      <point x="381" y="395"/>
      <point x="381" y="409" type="curve" smooth="yes"/>
      <point x="381" y="462"/>
      <point x="351" y="485"/>
      <point x="285" y="485" type="curve" smooth="yes"/>
      <point x="234" y="485"/>
      <point x="200" y="475"/>
      <point x="137" y="448" type="curve"/>
      <point x="130" y="480" type="line"/>
      <point x="189" y="504"/>
      <point x="233" y="518"/>
      <point x="292" y="518" type="curve" smooth="yes"/>
      <point x="382" y="518"/>
      <point x="422" y="484"/>
    </contour>
    <contour>
      <point x="353" y="274" type="line"/>
      <point x="129" y="279"/>
      <point x="56" y="193"/>
      <point x="56" y="105" type="curve" smooth="yes"/>
      <point x="56" y="53"/>
      <point x="91" y="23"/>
      <point x="139" y="23" type="curve" smooth="yes"/>
      <point x="190" y="23"/>
      <point x="246" y="58"/>
      <point x="318" y="135" type="curve"/>
    </contour>
  </outline>
</glyph>
<glyph name="bullet" format="1">
  <advance width="340"/>
  <outline>
    <contour>
      <point x="306" y="373" type="curve" smooth="yes"/>
      <point x="306" y="313"/>
      <point x="259" y="266"/>
      <point x="199" y="266" type="curve" smooth="yes"/>
      <point x="139" y="266"/>
      <point x="92" y="313"/>
      <point x="92" y="373" type="curve" smooth="yes"/>
      <point x="92" y="433"/>
      <point x="139" y="480"/>
      <point x="199" y="480" type="curve" smooth="yes"/>
      <point x="259" y="480"/>
      <point x="306" y="433"/>
    </contour>
  </outline>
</glyph>
